<svg width="20" height="20" viewBox="0 0 20 20" fill="none" xmlns="http://www.w3.org/2000/svg">
<path fill-rule="evenodd" clip-rule="evenodd" d="M2.0041 9.85797C0.978302 6.67145 2.34301 3.33119 5.40267 2.34612C6.86708 1.87507 8.45169 2.04457 9.77757 2.7969L9.99707 2.92862L10.2205 2.79616C11.4776 2.08446 12.9687 1.89428 14.372 2.28023L14.5934 2.34617C17.654 3.33154 19.0243 6.67338 17.9948 9.871C17.4786 11.3585 16.6321 12.7071 15.5146 13.8187C13.994 15.2955 12.3177 16.5995 10.5183 17.7061L10.3272 17.8248C10.1333 17.9454 9.88809 17.9474 9.69211 17.8302L9.48748 17.7076C7.68553 16.5995 6.00926 15.2955 4.48345 13.8136C3.3712 12.7071 2.52464 11.3585 2.0041 9.85797ZM9.64319 4.16277L9.47925 4.04518C8.39251 3.30236 7.02813 3.10277 5.77665 3.50533C3.40659 4.26838 2.33211 6.89829 3.16043 9.47191C3.61601 10.7847 4.36292 11.9746 5.33856 12.9452C6.79517 14.3599 8.40078 15.609 10.1204 16.6665L10.0014 16.5915L10.3913 16.3463C11.7525 15.4674 13.0345 14.4701 14.2201 13.3684L14.6601 12.9504C15.6409 11.9746 16.3878 10.7847 16.8391 9.48494C17.671 6.90075 16.5918 4.26898 14.2205 3.50552C12.9064 3.08397 11.4721 3.32542 10.3637 4.15516C10.1509 4.31447 9.85931 4.31754 9.64319 4.16277Z" fill="#111111"/>
</svg>
