<svg width="48" height="48" viewBox="0 0 48 48" fill="none" xmlns="http://www.w3.org/2000/svg">
<path fill-rule="evenodd" clip-rule="evenodd" d="M4 24C4 35.0458 12.9549 44 24 44C35.0451 44 44 35.0458 44 24C44 12.9556 35.0444 4 24 4C12.9556 4 4 12.9556 4 24ZM7 24C7 14.6124 14.6124 7 24 7C33.3876 7 41 14.6124 41 24C41 33.3889 33.3883 41 24 41C14.6117 41 7 33.3889 7 24ZM19.9114 30.0474C19.4745 30.6337 19.5211 31.4671 20.0525 32.0008C20.637 32.5878 21.5867 32.5899 22.1738 32.0053L29.1458 25.0633L29.2918 24.8949C29.7297 24.3067 29.6811 23.4705 29.1458 22.9375L22.1738 15.9955L22.0052 15.8506C21.4171 15.4161 20.5838 15.4663 20.0525 16L19.9076 16.1686C19.4731 16.7567 19.5233 17.59 20.057 18.1213L25.96 24.0024L20.057 29.8795L19.9114 30.0474Z" fill="white"/>
</svg>
