<svg width="48" height="48" viewBox="0 0 48 48" fill="none" xmlns="http://www.w3.org/2000/svg">
<path d="M18.625 34.9883C19.9168 37.9834 21.7179 40.6998 23.9996 43.0889C26.2815 40.6997 28.0825 37.9834 29.3743 34.9883H18.625Z" fill="#003FE6"/>
<path d="M20.4893 4.62891C18.0448 5.06972 15.7014 5.96953 13.5817 7.29441C11.2218 8.76947 9.20961 10.7224 7.66602 13.0134H15.586C16.7635 9.95653 18.4061 7.14853 20.4893 4.62891Z" fill="#48D413"/>
<path d="M27.5117 43.3728C29.9563 42.932 32.2996 42.0322 34.4193 40.7073C36.7793 39.2322 38.7914 37.2793 40.335 34.9883H32.415C31.2375 38.0452 29.5949 40.8532 27.5117 43.3728Z" fill="#48D413"/>
<path d="M40.335 13.0133C38.7914 10.7223 36.7793 8.76937 34.4193 7.29431C32.2996 5.96944 29.9563 5.06972 27.5117 4.62891C29.5949 7.14853 31.2375 9.95653 32.415 13.0134H40.335V13.0133Z" fill="#48D413"/>
<path d="M29.3744 13.0147C28.0825 10.0196 26.2815 7.30319 23.9997 4.91406C21.7178 7.30328 19.9168 10.0196 18.625 13.0147H29.3744Z" fill="#003FE6"/>
<path d="M7.66602 34.9884C9.20961 37.2794 11.2218 39.2323 13.5817 40.7074C15.7014 42.0323 18.0448 42.932 20.4893 43.3728C18.4061 40.8532 16.7635 38.0452 15.586 34.9883H7.66602V34.9884Z" fill="#48D413"/>
<path d="M0.999999 15.8262C0.447714 15.8262 0 16.2739 0 16.8262V31.1762C0 31.7285 0.447715 32.1762 1 32.1762H47C47.5523 32.1762 48 31.7285 48 31.1762V16.8262C48 16.2739 47.5523 15.8262 47 15.8262H0.999999ZM14.7532 28.755H12.7178L8.96944 22.7896V28.8813H6.81113V18.5369L8.84653 18.5372L12.5948 24.5025V18.5217H14.7532V28.755ZM21.6229 20.7175H18.1987V22.6223H21.3704V24.7806H18.1987V26.6854H21.6229V28.8437H16.0403V24.7806V22.6223V18.5591H21.6229V20.7175ZM31.7929 28.8113L29.746 28.8253L28.0665 23.0003L26.3857 28.8118L24.3378 28.8257L22.3572 18.8131L24.4746 18.3944L25.562 23.8915L27.0771 18.6529L29.0601 18.6555L30.5708 23.8949L31.6628 18.4085L33.7795 18.8298L31.7929 28.8113ZM41.1469 26.2143C40.871 27.7597 39.3972 28.8813 37.6427 28.8813C36.2226 28.8813 34.8894 28.309 33.9851 27.3111L35.5844 25.8617C36.0731 26.401 36.8425 26.7229 37.6427 26.7229C38.4069 26.7229 38.9442 26.2714 39.0221 25.8349C39.1267 25.2495 38.2519 24.8784 37.9813 24.7785C36.7077 24.3088 35.5767 23.8053 35.5292 23.7841L35.4511 23.7493L35.3795 23.7026C34.4969 23.1272 34.0421 22.1181 34.1927 21.0692C34.3529 19.9527 35.1684 19.0435 36.321 18.6962C38.5893 18.0129 40.4554 19.5519 40.5337 19.6177L39.1449 21.27L39.1515 21.2754C39.1409 21.2669 38.0813 20.4202 36.9436 20.7629C36.447 20.9125 36.3485 21.2415 36.3292 21.3759C36.3158 21.4696 36.3088 21.6932 36.505 21.8554C36.8002 21.9845 37.7301 22.3853 38.7281 22.7535C40.8287 23.5284 41.3548 25.0494 41.1469 26.2143Z" fill="#003FE6"/>
</svg>
