<svg width="49" height="48" viewBox="0 0 49 48" fill="none" xmlns="http://www.w3.org/2000/svg">
<g clip-path="url(#clip0_16_7257)">
<path d="M34.1701 18.8809C34.1701 18.5411 34.0382 18.2152 33.8033 17.9749C33.5684 17.7346 33.2498 17.5996 32.9175 17.5996H1.75266C1.42045 17.5996 1.10184 17.7346 0.866935 17.9749C0.632026 18.2152 0.500055 18.5411 0.500055 18.8809V37.3313C0.496756 38.1008 0.642063 38.8633 0.927635 39.5751C1.21321 40.2869 1.63342 40.934 2.16415 41.4793C2.69487 42.0245 3.32566 42.4572 4.0203 42.7524C4.71493 43.0476 5.45974 43.1996 6.21195 43.1996H36.5C35.0133 41.634 34.1781 39.5396 34.1701 37.357V18.8809ZM3.70673 24.006C3.70673 23.6662 3.8387 23.3403 4.07361 23.1C4.30852 22.8597 4.62713 22.7247 4.95934 22.7247H16.784C17.1162 22.7247 17.4348 22.8597 17.6697 23.1C17.9046 23.3403 18.0366 23.6662 18.0366 24.006V34.2563C18.0366 34.5961 17.9046 34.922 17.6697 35.1623C17.4348 35.4026 17.1162 35.5375 16.784 35.5375H4.95934C4.62713 35.5375 4.30852 35.4026 4.07361 35.1623C3.8387 34.922 3.70673 34.5961 3.70673 34.2563V24.006ZM29.31 40.637H4.95934C4.62713 40.637 4.30852 40.5021 4.07361 40.2618C3.8387 40.0215 3.70673 39.6956 3.70673 39.3558C3.70673 39.0159 3.8387 38.69 4.07361 38.4498C4.30852 38.2095 4.62713 38.0745 4.95934 38.0745H29.31C29.6422 38.0745 29.9608 38.2095 30.1958 38.4498C30.4307 38.69 30.5626 39.0159 30.5626 39.3558C30.5626 39.6956 30.4307 40.0215 30.1958 40.2618C29.9608 40.5021 29.6422 40.637 29.31 40.637ZM29.31 35.5119H21.7944C21.4622 35.5119 21.1436 35.3769 20.9087 35.1366C20.6737 34.8964 20.5418 34.5705 20.5418 34.2306C20.5418 33.8908 20.6737 33.5649 20.9087 33.3246C21.1436 33.0843 21.4622 32.9494 21.7944 32.9494H29.31C29.6422 32.9494 29.9608 33.0843 30.1958 33.3246C30.4307 33.5649 30.5626 33.8908 30.5626 34.2306C30.5626 34.5705 30.4307 34.8964 30.1958 35.1366C29.9608 35.3769 29.6422 35.5119 29.31 35.5119ZM29.31 30.3868H21.7944C21.4622 30.3868 21.1436 30.2518 20.9087 30.0115C20.6737 29.7712 20.5418 29.4453 20.5418 29.1055C20.5418 28.7657 20.6737 28.4398 20.9087 28.1995C21.1436 27.9592 21.4622 27.8242 21.7944 27.8242H29.31C29.6422 27.8242 29.9608 27.9592 30.1958 28.1995C30.4307 28.4398 30.5626 28.7657 30.5626 29.1055C30.5626 29.4453 30.4307 29.7712 30.1958 30.0115C29.9608 30.2518 29.6422 30.3868 29.31 30.3868ZM29.31 25.2617H21.7944C21.4622 25.2617 21.1436 25.1267 20.9087 24.8864C20.6737 24.6461 20.5418 24.3202 20.5418 23.9804C20.5418 23.6406 20.6737 23.3147 20.9087 23.0744C21.1436 22.8341 21.4622 22.6991 21.7944 22.6991H29.31C29.6422 22.6991 29.9608 22.8341 30.1958 23.0744C30.4307 23.3147 30.5626 23.6406 30.5626 23.9804C30.5626 24.3202 30.4307 24.6461 30.1958 24.8864C29.9608 25.1267 29.6422 25.2617 29.31 25.2617ZM15.5313 32.9494H6.21195V25.2617H15.5313V32.9494Z" fill="#3E00FF"/>
<path d="M48.4996 6.87021L48.474 37.0222C48.5269 37.8136 48.4155 38.6074 48.1468 39.3544C47.8781 40.1013 47.4578 40.7856 46.9119 41.3647C46.3661 41.9438 45.7062 42.4055 44.9733 42.7211C44.2404 43.0368 43.45 43.1996 42.6511 43.1996C41.8522 43.1996 41.0618 43.0368 40.3289 42.7211C39.596 42.4055 38.9361 41.9438 38.3902 41.3647C37.8444 40.7856 37.424 40.1013 37.1554 39.3544C36.8867 38.6074 36.7753 37.8136 36.8282 37.0222V16.908C36.8282 16.571 36.6933 16.2478 36.4533 16.0095C36.2133 15.7713 35.8878 15.6374 35.5484 15.6374H14.0996V6.87021C14.0996 6.53323 14.2344 6.21004 14.4744 5.97176C14.7144 5.73348 15.04 5.59961 15.3794 5.59961H47.2198C47.5593 5.59961 47.8848 5.73348 48.1248 5.97176C48.3648 6.21004 48.4996 6.53323 48.4996 6.87021Z" fill="#47E100"/>
</g>
<defs>
<clipPath id="clip0_16_7257">
<rect width="48" height="48" fill="white" transform="translate(0.5)"/>
</clipPath>
</defs>
</svg>
