<svg width="49" height="48" viewBox="0 0 49 48" fill="none" xmlns="http://www.w3.org/2000/svg">
<g clip-path="url(#clip0_16_7053)">
<path d="M14.8848 22.5398C14.8848 28.2162 19.4864 32.8178 25.1628 32.8178C30.8392 32.8178 35.4409 28.2162 35.4409 22.5398C35.4409 16.8634 30.8392 12.2617 25.1628 12.2617C19.4892 12.2681 14.8911 16.8661 14.8848 22.5398ZM25.1628 23.1893C23.4572 23.1988 22.012 21.9356 21.7938 20.2439C21.5756 18.5526 22.6527 16.9635 24.3051 16.5402V15.6713C24.3051 15.2778 24.6238 14.959 25.0173 14.959C25.4109 14.959 25.7296 15.2778 25.7296 15.6713V16.4969C27.3458 16.7703 28.5255 18.1754 28.5152 19.815C28.5152 20.2038 28.2 20.519 27.8112 20.519C27.4225 20.519 27.1073 20.2038 27.1073 19.815C27.1061 18.7391 26.2332 17.8678 25.1573 17.869C24.0813 17.8702 23.21 18.7434 23.2116 19.8194C23.2128 20.895 24.086 21.7663 25.162 21.7647C26.9066 21.7746 28.3554 23.1133 28.5029 24.8519C28.6503 26.5901 27.4475 28.1538 25.7296 28.4575V29.3065C25.7296 29.7 25.4109 30.0188 25.0173 30.0188C24.6238 30.0188 24.3051 29.7 24.3051 29.3065V28.4137C22.8165 28.0206 21.7763 26.6787 21.7663 25.1393C21.7663 24.7414 22.0891 24.4187 22.487 24.4187C22.8849 24.4187 23.2076 24.7414 23.2076 25.1393C23.21 26.1342 23.9596 26.9685 24.9486 27.077C24.9851 27.0711 25.0225 27.0683 25.0599 27.0679C25.1135 27.0679 25.1668 27.0742 25.2193 27.0862C26.2877 27.0599 27.1355 26.1783 27.12 25.1099C27.1045 24.0411 26.2313 23.1845 25.1628 23.1893Z" fill="#003FE6"/>
<path d="M41.6585 37.7175C41.6534 37.7203 41.6478 37.7231 41.6418 37.7259L35.0297 40.8497C35.1009 41.2158 35.1319 41.5882 35.1219 41.961C35.1116 42.3466 34.796 42.6539 34.4105 42.6539C34.4037 42.6539 34.3969 42.6539 34.3902 42.6539L24.7131 42.3875C24.3196 42.3768 24.0096 42.0493 24.0203 41.6558C24.031 41.2623 24.359 40.9522 24.7521 40.963L33.6473 41.2078C33.3524 39.4839 31.8825 38.2072 30.1344 38.1564L24.2477 37.9946C23.085 37.9612 21.9451 37.6667 20.912 37.1328L20.313 36.8228C17.3712 35.2901 13.8265 35.4897 11.0755 37.3431L10.8398 45.9068L11.8514 45.3651C12.8567 44.8245 14.0328 44.6957 15.1314 45.0061L25.1217 47.8104C27.0471 48.2047 29.048 47.9813 30.8391 47.1712L44.6798 38.2184C43.89 37.4099 42.6669 37.2068 41.6585 37.7175Z" fill="#48D413"/>
<path d="M4.33789 47.3936L4.68887 34.6523L9.72018 34.7911L9.3692 47.5323L4.33789 47.3936Z" fill="#003FE6"/>
<path d="M25.8308 8.44567V0.712286C25.8308 0.31878 25.512 0 25.1185 0C24.725 0 24.4062 0.31878 24.4062 0.712286V8.44567C24.4062 8.83918 24.725 9.15796 25.1185 9.15796C25.512 9.15796 25.8308 8.83918 25.8308 8.44567Z" fill="#48D413"/>
<path d="M31.9363 8.44578V4.7826C31.9363 4.38909 31.6175 4.07031 31.224 4.07031C30.8305 4.07031 30.5117 4.38909 30.5117 4.7826V8.44578C30.5117 8.83929 30.8305 9.15807 31.224 9.15807C31.6175 9.15807 31.9363 8.83929 31.9363 8.44578Z" fill="#48D413"/>
<path d="M19.7254 8.44578V4.7826C19.7254 4.38909 19.4066 4.07031 19.0131 4.07031C18.6196 4.07031 18.3008 4.38909 18.3008 4.7826V8.44578C18.3008 8.83929 18.6196 9.15807 19.0131 9.15807C19.4066 9.15807 19.7254 8.83929 19.7254 8.44578Z" fill="#48D413"/>
</g>
<defs>
<clipPath id="clip0_16_7053">
<rect width="48" height="48" fill="white" transform="translate(0.5)"/>
</clipPath>
</defs>
</svg>
