<svg width="32" height="32" viewBox="0 0 32 32" fill="none" xmlns="http://www.w3.org/2000/svg">
<path d="M30.7914 13.2194L17.7389 13.2188C17.1625 13.2188 16.6953 13.6859 16.6953 14.2623V18.4319C16.6953 19.0082 17.1625 19.4754 17.7388 19.4754H25.0892C24.2843 21.5643 22.7821 23.3136 20.8654 24.4251L23.9996 29.8506C29.0273 26.9429 31.9996 21.8411 31.9996 16.13C31.9996 15.3168 31.9397 14.7355 31.8198 14.0809C31.7287 13.5836 31.2969 13.2194 30.7914 13.2194Z" fill="#167EE6"/>
<path d="M16.0002 25.7384C12.4031 25.7384 9.26282 23.7731 7.57625 20.8647L2.15088 23.9919C4.91182 28.777 10.0839 31.9993 16.0002 31.9993C18.9025 31.9993 21.6411 31.2179 24.0002 29.8561V29.8486L20.866 24.423C19.4324 25.2545 17.7734 25.7384 16.0002 25.7384Z" fill="#12B347"/>
<path d="M24 29.8549V29.8475L20.8658 24.4219C19.4322 25.2533 17.7733 25.7373 16 25.7373V31.9982C18.9023 31.9982 21.641 31.2168 24 29.8549Z" fill="#0F993E"/>
<path d="M6.26088 16.0004C6.26088 14.2273 6.74475 12.5685 7.57606 11.1349L2.15069 8.00781C0.781375 10.3595 0 13.0906 0 16.0004C0 18.9101 0.781375 21.6413 2.15069 23.9929L7.57606 20.8658C6.74475 19.4322 6.26088 17.7734 6.26088 16.0004Z" fill="#FFD500"/>
<path d="M16.0002 6.26087C18.3459 6.26087 20.5005 7.09437 22.1834 8.48081C22.5986 8.82281 23.2021 8.79812 23.5824 8.41781L26.5368 5.46344C26.9683 5.03194 26.9375 4.32562 26.4766 3.92575C23.6569 1.47956 19.9881 0 16.0002 0C10.0839 0 4.91182 3.22231 2.15088 8.00744L7.57625 11.1346C9.26282 8.22625 12.4031 6.26087 16.0002 6.26087Z" fill="#FF4B26"/>
<path d="M22.1833 8.48081C22.5984 8.82281 23.2019 8.79813 23.5822 8.41781L26.5366 5.46344C26.968 5.03194 26.9373 4.32562 26.4764 3.92575C23.6567 1.4795 19.9879 0 16 0V6.26088C18.3456 6.26088 20.5003 7.09437 22.1833 8.48081Z" fill="#D93F21"/>
</svg>
