<svg width="225" height="36" viewBox="0 0 225 36" fill="none" xmlns="http://www.w3.org/2000/svg">
<path d="M46.6736 17.2606C46.6549 16.9562 46.6322 16.6517 46.6014 16.3527C46.5614 15.9485 46.508 15.5444 46.4398 15.147C45.7224 10.9093 43.5421 7.06428 40.2846 4.29219C37.0272 1.52011 32.9026 -0.000302478 28.6408 4.51371e-08C28.4912 4.51371e-08 28.3416 4.51371e-08 28.1921 4.51371e-08C24.0248 0.10507 20.0219 1.66078 16.862 4.40333C13.7021 7.14587 11.5799 10.9064 10.8551 15.0473C10.807 15.3284 10.7647 15.6122 10.7282 15.8987C10.7055 16.0711 10.6882 16.2449 10.6721 16.416C10.6468 16.6598 10.6267 16.905 10.6147 17.1501C10.5947 17.5031 10.584 17.856 10.584 18.2144C10.584 18.5727 10.5947 18.9283 10.6147 19.2826C10.6294 19.5278 10.6468 19.7703 10.6708 20.0141C10.6908 20.2283 10.7162 20.4412 10.7469 20.6513C12.264 20.7658 13.8959 20.8682 15.6053 20.9531C16.468 20.9935 17.3534 21.0325 18.2536 21.0662C18.2001 20.8561 18.1521 20.6459 18.112 20.4331C18.0612 20.1933 18.0212 19.9495 17.9878 19.7016C17.9109 19.1531 17.8725 18.5999 17.8729 18.046C17.872 17.6076 17.896 17.1695 17.9451 16.7339C17.9704 16.4874 18.0052 16.2449 18.0466 16.0038C18.0839 15.7896 18.124 15.574 18.1734 15.3666C18.2282 15.1187 18.2923 14.8749 18.3631 14.6351C19.0916 12.1689 20.5899 10.0058 22.6352 8.46767C24.6805 6.92955 27.1634 6.09858 29.7145 6.0984C30.2078 6.09826 30.7006 6.12885 31.1902 6.19C33.1692 6.43854 35.0532 7.18991 36.6656 8.37368L36.8178 8.4801C38.0109 9.33431 39.0498 10.3887 39.8894 11.5973C40.5723 12.5855 41.1119 13.6669 41.492 14.8089C41.5734 15.0527 41.6495 15.3006 41.715 15.5484C41.715 15.5713 41.7283 15.5969 41.7337 15.6198C41.739 15.6427 41.7457 15.6656 41.751 15.6899C41.7791 15.7923 41.8018 15.896 41.8245 15.9984C41.8392 16.0603 41.8552 16.1236 41.8672 16.1856C41.9206 16.4281 41.966 16.6746 42.0008 16.9198C42.1352 17.7726 42.1871 18.6366 42.1557 19.4995C42.1557 19.7433 42.1357 19.9858 42.1129 20.2283C42.0943 20.4412 42.0715 20.654 42.0435 20.8641C42.0115 21.1093 41.9727 21.3518 41.9246 21.5956C41.741 22.5822 41.449 23.545 41.0539 24.4663C39.8348 27.3013 37.718 29.6484 35.035 31.14C36.9153 30.2095 38.565 28.8659 39.8631 27.208C41.1612 25.5501 42.0746 23.6199 42.5363 21.5593C42.5924 21.3168 42.6405 21.073 42.6832 20.8278C42.7192 20.6176 42.7513 20.4034 42.7767 20.1906C42.8074 19.9468 42.8328 19.7016 42.8501 19.4591C42.9537 18.106 42.8638 16.745 42.583 15.4178C42.2524 13.8453 41.6493 12.3441 40.8015 10.983C39.9446 9.61562 38.8604 8.40752 37.5964 7.41184C36.3239 6.41104 34.8968 5.62824 33.3723 5.0948C31.8411 4.56256 30.2373 4.27352 28.6181 4.23803V4.23803C28.6048 4.23668 28.5913 4.23668 28.578 4.23803C28.5449 4.23804 28.5119 4.24075 28.4792 4.24611L28.4618 4.18684C30.1856 4.12208 31.907 4.36889 33.5446 4.91563C35.5858 5.60894 37.4497 6.74902 39.0028 8.25422C40.5559 9.75941 41.7598 11.5925 42.5283 13.622C43.2259 15.4726 43.5553 17.4437 43.4978 19.4227C43.4978 19.6504 43.4818 19.8781 43.4644 20.1044C43.4657 20.1205 43.4657 20.1367 43.4644 20.1529C43.4497 20.3644 43.4297 20.5745 43.4043 20.7874C43.3732 21.0325 43.3367 21.2773 43.2948 21.5215C43.0007 23.2486 42.4134 24.9115 41.5587 26.4372C40.4417 28.4103 38.9054 30.1094 37.06 31.4124C35.2146 32.7153 33.106 33.5898 30.8857 33.9729C30.3255 34.0679 29.7607 34.1331 29.1937 34.1683C28.9119 34.1804 28.6274 34.1979 28.3443 34.1979C28.0612 34.1979 27.7727 34.1979 27.4896 34.1804C26.3466 34.1282 25.2129 33.9474 24.1096 33.6416C25.2056 33.9998 26.3373 34.2356 27.4843 34.3448C27.7714 34.3717 28.0572 34.3906 28.347 34.4054C28.6368 34.4202 28.9226 34.4135 29.2124 34.4135C29.7904 34.4067 30.3677 34.3689 30.9418 34.3003C33.2617 34.0101 35.4891 33.2055 37.4642 31.9442C39.2999 30.7701 40.8802 29.2324 42.1095 27.4242C43.3387 25.616 44.1913 23.5749 44.6156 21.4245C44.6664 21.1807 44.7091 20.9355 44.7492 20.6863C44.7714 20.5355 44.7914 20.3846 44.8093 20.2337C44.8173 20.1731 44.8253 20.1138 44.8306 20.0518C44.8573 19.8094 44.8787 19.5628 44.8934 19.3177C45.0472 17.0325 44.7283 14.7401 43.957 12.586C43.1856 10.4318 41.9788 8.46289 40.4129 6.80429C40.0442 6.40976 39.6555 6.03476 39.2484 5.68079C39.5969 5.97042 39.9335 6.27218 40.2567 6.5901C40.4236 6.74771 40.5732 6.92283 40.7334 7.08853L40.9711 7.33909C41.0499 7.42666 41.1207 7.51557 41.1968 7.60852C41.3451 7.78768 41.4946 7.96146 41.6415 8.14736L42.0542 8.70238C42.5976 9.45282 43.0757 10.2492 43.4831 11.0827L43.6407 11.3939L43.7743 11.7145C43.8664 11.9287 43.9652 12.1389 44.048 12.3571C44.2029 12.7949 44.3752 13.2273 44.4981 13.68C45.0288 15.4754 45.2586 17.3476 45.1778 19.2193C45.1778 19.2476 45.1778 19.2786 45.1778 19.3069C45.1671 19.5521 45.1498 19.7959 45.1271 20.0384C45.1071 20.2512 45.0844 20.4614 45.0563 20.6729C45.0229 20.9194 44.9855 21.1646 44.9415 21.4097C44.4159 24.4162 43.0823 27.2195 41.086 29.514C39.8387 30.942 38.3653 32.1515 36.7257 33.0933C35.9028 33.5606 35.0435 33.9593 34.1563 34.2855C33.2665 34.6159 32.3495 34.8661 31.4159 35.0331C30.4805 35.1971 29.5339 35.2872 28.5847 35.3026C27.633 35.3145 26.6819 35.246 25.7415 35.0978C26.6797 35.2731 27.6307 35.3699 28.5847 35.3874C29.5413 35.3988 30.4973 35.3344 31.4439 35.1948C32.3929 35.0528 33.3277 34.8274 34.2377 34.5212C36.4485 33.7821 38.4878 32.5984 40.2323 31.0418C41.9768 29.4851 43.3903 27.5878 44.3872 25.4646C43.0401 28.559 40.8391 31.1974 38.0467 33.0649C35.2542 34.9325 31.9882 35.9506 28.6381 35.9977C33.3235 36.0741 37.8476 34.2729 41.2182 30.9891C43.9132 28.3788 45.7304 24.9828 46.4145 21.2777C46.4599 21.0325 46.4995 20.786 46.5333 20.5381C46.5667 20.3253 46.5921 20.1138 46.6148 19.8983C46.6228 19.8269 46.6295 19.7528 46.6375 19.6814C46.6375 19.6585 46.6375 19.6329 46.6375 19.6073C46.6468 19.4605 46.6575 19.315 46.6655 19.1668C46.6825 18.8489 46.6909 18.5296 46.6909 18.209C46.6963 17.8951 46.6882 17.5758 46.6736 17.2606ZM38.1359 4.82403L38.1239 4.81325C38.0734 4.77485 38.0284 4.7295 37.9904 4.67854C38.4216 4.98463 38.8366 5.31333 39.2337 5.66328C38.8745 5.37096 38.5099 5.0921 38.1359 4.82403V4.82403ZM22.6819 27.5755C21.3024 25.936 19.549 24.3209 18.8719 22.8444C18.8719 22.8444 18.8719 22.8363 18.8639 22.8336C18.717 22.4955 18.5847 22.1506 18.4712 21.7977L18.2295 21.7896C17.3241 21.7573 16.4387 21.7182 15.5733 21.6778C13.8919 21.5929 12.3067 21.4959 10.8551 21.3855C11.2457 23.625 12.0512 25.7703 13.2295 27.7089C13.2312 27.7135 13.234 27.7176 13.2376 27.721C13.3444 27.888 13.4526 28.0591 13.5647 28.2383C14.685 29.9526 16.0847 31.4634 17.7047 32.7067C20.7335 34.6155 23.4993 33.7992 24.3593 32.1678C25.0484 30.8517 24.0495 29.2001 22.6819 27.5755Z" fill="#003FE6"/>
<path d="M41.8374 15.9989C41.8147 15.8966 41.792 15.7928 41.764 15.6904C41.764 15.6662 41.7506 15.6433 41.7466 15.6204C41.7426 15.5975 41.7332 15.5719 41.7279 15.549C37.596 15.3159 32.8951 15.1934 28.006 15.1934C24.5966 15.1934 21.2766 15.2553 18.1743 15.3671C18.1249 15.5746 18.0849 15.7901 18.0475 16.0043C21.0229 15.8898 24.3535 15.8252 28.006 15.8252C33.3572 15.8252 38.0073 15.9599 41.8801 16.1862C41.8681 16.1242 41.8521 16.0609 41.8374 15.9989ZM41.8374 15.9989C41.8147 15.8966 41.792 15.7928 41.764 15.6904C41.764 15.6662 41.7506 15.6433 41.7466 15.6204C41.7426 15.5975 41.7332 15.5719 41.7279 15.549C37.596 15.3159 32.8951 15.1934 28.006 15.1934C24.5966 15.1934 21.2766 15.2553 18.1743 15.3671C18.1249 15.5746 18.0849 15.7901 18.0475 16.0043C21.0229 15.8898 24.3535 15.8252 28.006 15.8252C33.3572 15.8252 38.0073 15.9599 41.8801 16.1862C41.8681 16.1242 41.8521 16.0609 41.8374 15.9989ZM48.1234 16.038C48.0166 16.0299 47.9084 16.0178 47.7989 16.0043C47.7402 16.0043 47.6801 15.9949 47.6213 15.9895C47.5625 15.9841 47.5305 15.9787 47.4878 15.976L47.0978 15.9383L46.7653 15.9073C46.6972 15.8992 46.6317 15.8952 46.5569 15.8871C46.5756 16.0434 46.5903 16.1997 46.605 16.3532C46.613 16.4112 46.6184 16.4704 46.6237 16.5297L46.8133 16.5445C46.9282 16.5553 47.0444 16.5647 47.1566 16.5782C47.2687 16.5917 47.4103 16.5984 47.5345 16.6105L47.8617 16.6469C47.9672 16.6577 48.0713 16.6644 48.1728 16.6779C52.6894 17.1507 55.1907 17.7367 55.3843 18.2149C55.184 18.7013 52.664 19.2926 48.1234 19.7641C48.0393 19.7641 47.9485 19.7789 47.8563 19.787L47.4717 19.8247C47.3702 19.8355 47.2661 19.8476 47.1592 19.8557C47.0043 19.8692 46.8467 19.8867 46.6851 19.8961C46.6592 19.9016 46.6328 19.9043 46.6063 19.9042C46.2364 19.9379 45.8478 19.9729 45.4538 20.0012C45.343 20.012 45.2281 20.0201 45.1146 20.0295L44.8208 20.0524L44.1531 20.0996C44.097 20.1063 44.0436 20.109 43.9862 20.1117C43.8179 20.1252 43.6456 20.1346 43.4707 20.1481L42.7856 20.1912C42.5679 20.206 42.3502 20.2195 42.1245 20.2289C41.1666 20.2882 40.165 20.3393 39.1197 20.3825C38.2088 20.0984 37.413 19.5256 36.8505 18.749C36.288 17.9724 35.9888 17.0334 35.9974 16.0717C35.9949 17.0354 35.7082 17.9765 35.1739 18.7753C34.6395 19.5742 33.8816 20.1946 32.9966 20.5576C31.4083 20.5854 29.7439 20.6002 28.0033 20.602C24.3735 20.602 21.0758 20.5446 18.1102 20.4296C17.1825 20.3946 16.2878 20.3555 15.4259 20.3124C13.697 20.2226 12.1113 20.122 10.669 20.0106C9.66342 19.9285 8.72726 19.8436 7.86455 19.7547C3.3026 19.2859 0.786587 18.6972 0.62099 18.2244C0.789258 17.7381 3.3026 17.1467 7.86455 16.6685C8.73126 16.5782 9.66475 16.4947 10.669 16.4125C10.685 16.2414 10.7024 16.0676 10.7251 15.8952L10.7411 15.7807C9.9265 15.8413 9.13858 15.9154 8.39472 15.9855L7.92464 16.0313C-5.09439e-07 16.849 0 17.8041 0 18.2149C0 18.6258 -5.09439e-07 19.5877 7.92464 20.3959L8.39472 20.4417C9.14258 20.5158 9.92383 20.5845 10.7438 20.6519C12.2609 20.7664 13.8928 20.8688 15.6022 20.9536C16.4649 20.994 17.3503 21.0331 18.2504 21.0668C21.3287 21.1759 24.6206 21.2379 27.9993 21.2379C29.7581 21.2379 31.4929 21.2217 33.1823 21.1894C34.0192 21.5237 34.7359 22.1062 35.2378 22.8599C35.7397 23.6137 36.0032 24.5033 35.9934 25.4112C35.9981 24.4863 36.2645 23.5818 36.7613 22.8044C37.2581 22.0269 37.9647 21.4086 38.7979 21.0223C39.917 20.9792 41.001 20.9267 42.0497 20.8647C42.2634 20.8539 42.4784 20.8405 42.6868 20.8284C42.9298 20.8108 43.1662 20.8001 43.4026 20.7825C43.5722 20.7691 43.7364 20.7623 43.9047 20.7489L44.0289 20.7381C44.2639 20.7233 44.503 20.7085 44.734 20.6869C44.8382 20.6869 44.937 20.6721 45.0385 20.664C45.14 20.6559 45.2762 20.6465 45.3964 20.6384C45.777 20.6101 46.1523 20.5751 46.5195 20.5441C46.5442 20.5427 46.5687 20.54 46.593 20.536C46.7613 20.5212 46.9255 20.5091 47.0925 20.4929C47.1926 20.4835 47.2954 20.4754 47.3929 20.4646C47.4637 20.4552 47.5372 20.4498 47.6079 20.4417L47.7962 20.4242C47.879 20.4134 47.9632 20.408 48.0446 20.3986C56 19.5903 56 18.6325 56 18.2149C56 17.7973 56.0133 16.8517 48.1234 16.038Z" fill="#003FE6"/>
<path d="M81.16 6.4H85.024V26H82.084L73.684 14.016V26H69.82V6.4H72.76L81.16 18.356V6.4ZM92.5238 22.304H100.784V26H88.6598V6.4H100.644V10.096H92.5238V14.268H99.9438V17.908H92.5238V22.304ZM107.596 26L102.108 6.4H106.168L109.919 20.932L114.008 6.4H117.312L121.428 20.932L125.18 6.4H129.24L123.752 26H119.356L115.66 13.064L111.992 26H107.596ZM138.48 6.4H142.344V26H138.48V6.4ZM153.588 11.608C155.119 11.608 156.379 12.1213 157.368 13.148C158.376 14.1747 158.88 15.5933 158.88 17.404V26H155.268V17.852C155.268 16.9187 155.016 16.2093 154.512 15.724C154.008 15.22 153.336 14.968 152.496 14.968C151.563 14.968 150.816 15.2573 150.256 15.836C149.696 16.4147 149.416 17.2827 149.416 18.44V26H145.804V12H149.416V13.568C150.294 12.2613 151.684 11.608 153.588 11.608ZM165.297 15.976C165.297 16.3493 165.539 16.6573 166.025 16.9C166.529 17.124 167.135 17.3293 167.845 17.516C168.554 17.684 169.263 17.908 169.973 18.188C170.682 18.4493 171.279 18.8973 171.765 19.532C172.269 20.1667 172.521 20.96 172.521 21.912C172.521 23.3493 171.979 24.46 170.897 25.244C169.833 26.0093 168.498 26.392 166.893 26.392C164.018 26.392 162.058 25.2813 161.013 23.06L164.149 21.296C164.559 22.5093 165.474 23.116 166.893 23.116C168.181 23.116 168.825 22.7147 168.825 21.912C168.825 21.5387 168.573 21.24 168.069 21.016C167.583 20.7733 166.986 20.5587 166.277 20.372C165.567 20.1853 164.858 19.952 164.149 19.672C163.439 19.392 162.833 18.9533 162.329 18.356C161.843 17.74 161.601 16.9747 161.601 16.06C161.601 14.6787 162.105 13.596 163.113 12.812C164.139 12.0093 165.409 11.608 166.921 11.608C168.059 11.608 169.095 11.8693 170.029 12.392C170.962 12.896 171.699 13.624 172.241 14.576L169.161 16.256C168.713 15.304 167.966 14.828 166.921 14.828C166.454 14.828 166.062 14.9307 165.745 15.136C165.446 15.3413 165.297 15.6213 165.297 15.976ZM176.635 10.32C176.038 10.32 175.515 10.1053 175.067 9.676C174.638 9.228 174.423 8.70533 174.423 8.108C174.423 7.51067 174.638 6.988 175.067 6.54C175.515 6.092 176.038 5.868 176.635 5.868C177.251 5.868 177.774 6.092 178.203 6.54C178.651 6.988 178.875 7.51067 178.875 8.108C178.875 8.70533 178.651 9.228 178.203 9.676C177.774 10.1053 177.251 10.32 176.635 10.32ZM174.843 26V12H178.455V26H174.843ZM192.485 12H196.013V25.328C196.013 27.4933 195.295 29.1453 193.857 30.284C192.439 31.4227 190.721 31.992 188.705 31.992C187.193 31.992 185.859 31.7027 184.701 31.124C183.563 30.5453 182.685 29.696 182.069 28.576L185.149 26.812C185.859 28.1187 187.081 28.772 188.817 28.772C189.956 28.772 190.852 28.4733 191.505 27.876C192.159 27.2787 192.485 26.4293 192.485 25.328V23.816C191.421 25.2347 189.928 25.944 188.005 25.944C186.027 25.944 184.365 25.2533 183.021 23.872C181.696 22.472 181.033 20.7733 181.033 18.776C181.033 16.7973 181.705 15.108 183.049 13.708C184.393 12.308 186.045 11.608 188.005 11.608C189.928 11.608 191.421 12.3173 192.485 13.736V12ZM185.737 21.548C186.484 22.2573 187.427 22.612 188.565 22.612C189.704 22.612 190.637 22.2573 191.365 21.548C192.112 20.82 192.485 19.896 192.485 18.776C192.485 17.6747 192.112 16.7693 191.365 16.06C190.637 15.332 189.704 14.968 188.565 14.968C187.427 14.968 186.484 15.332 185.737 16.06C185.009 16.7693 184.645 17.6747 184.645 18.776C184.645 19.896 185.009 20.82 185.737 21.548ZM207.073 11.608C208.603 11.608 209.863 12.1213 210.853 13.148C211.861 14.1747 212.365 15.5933 212.365 17.404V26H208.753V17.852C208.753 16.9187 208.501 16.2093 207.997 15.724C207.493 15.22 206.821 14.968 205.981 14.968C205.047 14.968 204.301 15.2573 203.741 15.836C203.181 16.4147 202.901 17.2827 202.901 18.44V26H199.289V6.4H202.901V13.568C203.778 12.2613 205.169 11.608 207.073 11.608ZM223.457 15.472H220.293V21.296C220.293 21.7813 220.414 22.136 220.657 22.36C220.9 22.584 221.254 22.7147 221.721 22.752C222.188 22.7707 222.766 22.7613 223.457 22.724V26C220.974 26.28 219.22 26.0467 218.193 25.3C217.185 24.5533 216.681 23.2187 216.681 21.296V15.472H214.245V12H216.681V9.172L220.293 8.08V12H223.457V15.472Z" fill="#003FE6"/>
</svg>
