<svg width="48" height="48" viewBox="0 0 48 48" fill="none" xmlns="http://www.w3.org/2000/svg">
<path d="M43.5228 30.6327C43.3136 30.5163 43.0951 30.417 42.8695 30.336V17.6291C43.0969 17.5676 43.3163 17.4798 43.5228 17.3673C44.4368 16.845 45.1041 15.9861 45.3788 14.9785C45.6535 13.9709 45.5131 12.8968 44.9884 11.9913C44.4538 11.0943 43.5837 10.4413 42.566 10.1734C41.5483 9.90561 40.4648 10.0445 39.5499 10.56C39.3417 10.6796 39.1464 10.82 38.9672 10.9789L27.8606 4.64291C27.8789 4.40471 27.8789 4.16548 27.8606 3.92727C27.8606 2.8857 27.4421 1.88678 26.697 1.15027C25.9519 0.413765 24.9414 0 23.8877 0C22.834 0 21.8235 0.413765 21.0784 1.15027C20.3334 1.88678 19.9148 2.8857 19.9148 3.92727C19.8965 4.16548 19.8965 4.40471 19.9148 4.64291L8.9495 10.9789C8.77023 10.82 8.57498 10.6796 8.36681 10.56C7.45185 10.0445 6.36841 9.90561 5.35071 10.1734C4.33301 10.4413 3.46283 11.0943 2.92831 11.9913C2.40357 12.8968 2.26317 13.9709 2.53786 14.9785C2.81254 15.9861 3.47992 16.845 4.39388 17.3673C4.60042 17.4798 4.81973 17.5676 5.04721 17.6291V30.336C4.82157 30.417 4.60306 30.5163 4.39388 30.6327C3.47992 31.155 2.81254 32.0139 2.53786 33.0215C2.26317 34.0291 2.40357 35.1032 2.92831 36.0087C3.19538 36.4428 3.54657 36.8205 3.96171 37.12C4.37684 37.4195 4.84775 37.6351 5.34738 37.7542C5.65339 37.8689 5.97452 37.9394 6.30088 37.9636C7.00072 37.9635 7.68843 37.783 8.29618 37.44C8.50435 37.3204 8.6996 37.18 8.87887 37.0211L19.9854 43.3571C19.9671 43.5953 19.9671 43.8345 19.9854 44.0727C19.9854 45.1143 20.404 46.1132 21.1491 46.8497C21.8941 47.5862 22.9047 48 23.9583 48C25.012 48 26.0226 47.5862 26.7676 46.8497C27.5127 46.1132 27.9313 45.1143 27.9313 44.0727C27.9495 43.8345 27.9495 43.5953 27.9313 43.3571L39.0378 37.0211C39.2171 37.18 39.4123 37.3204 39.6205 37.44C40.2283 37.783 40.916 37.9635 41.6158 37.9636C41.9624 37.9688 42.3077 37.9218 42.6399 37.824C43.1396 37.7049 43.6105 37.4894 44.0256 37.1898C44.4407 36.8903 44.7919 36.5126 45.059 36.0785C45.3271 35.623 45.5002 35.119 45.568 34.5963C45.6358 34.0736 45.5969 33.5427 45.4537 33.0351C45.3105 32.5275 45.0659 32.0533 44.7343 31.6407C44.4026 31.2281 43.9907 30.8854 43.5228 30.6327ZM40.2209 30.3535C39.3237 30.6501 38.5676 31.2616 38.0958 32.0722C37.624 32.8827 37.4691 33.8362 37.6605 34.752L26.5187 41.1055C25.8119 40.4882 24.9014 40.1476 23.9583 40.1476C23.0153 40.1476 22.1047 40.4882 21.398 41.1055L10.2562 34.752C10.4476 33.8362 10.2927 32.8827 9.82089 32.0722C9.34907 31.2616 8.59301 30.6501 7.69582 30.3535V17.6291C8.59433 17.3231 9.34818 16.7021 9.81472 15.8836C10.2845 15.0694 10.4412 14.115 10.2562 13.1956L21.398 6.89455C22.1047 7.51176 23.0153 7.85242 23.9583 7.85242C24.9014 7.85242 25.8119 7.51176 26.5187 6.89455L37.6605 13.248C37.4701 14.1652 37.6206 15.1196 38.0843 15.936C38.5508 16.7544 39.3047 17.3754 40.2032 17.6815L40.2209 30.3535Z" fill="#003FE6"/>
<path d="M22.6334 24.7506L14.6875 20.2124V28.5382C14.6882 28.767 14.7487 28.9917 14.8632 29.1904C14.9777 29.3892 15.1422 29.5554 15.3408 29.6728L22.6334 33.827V24.7506Z" fill="#48D413"/>
<path d="M23.9577 22.4815L31.9035 17.9608L24.6286 13.7891C24.423 13.6776 24.1922 13.6191 23.9577 13.6191C23.7231 13.6191 23.4923 13.6776 23.2867 13.7891L16.0118 17.9608L23.9577 22.4815Z" fill="#48D413"/>
<path d="M33.2278 20.2124L25.282 24.7506V33.827L32.5745 29.6728C32.7731 29.5554 32.9376 29.3892 33.0521 29.1904C33.1666 28.9917 33.2271 28.767 33.2278 28.5382V20.2124Z" fill="#48D413"/>
</svg>
