<svg width="20" height="20" viewBox="0 0 20 20" fill="none" xmlns="http://www.w3.org/2000/svg">
<path fill-rule="evenodd" clip-rule="evenodd" d="M10.24 3.33751L10.0015 3.3335C6.55073 3.3335 3.44089 5.7694 1.71727 9.75502C1.64958 9.91153 1.64958 10.0888 1.71727 10.2453L1.8367 10.5142C3.53849 14.2444 6.47937 16.5538 9.75967 16.6628L9.99817 16.6668C13.4489 16.6668 16.5588 14.2309 18.2824 10.2453C18.3509 10.0868 18.35 9.90716 18.2799 9.74936L18.1639 9.48819C16.4579 5.75092 13.5158 3.44638 10.24 3.33751ZM10.0076 4.57465L10.2067 4.57893L10.4292 4.59051C13.0936 4.77916 15.5439 6.75474 17.0243 9.99939L17.0165 10.0194C15.499 13.3338 12.9642 15.3212 10.2158 15.4209L10.0034 15.4241L9.78921 15.4213L9.56727 15.4097C6.98569 15.2268 4.60541 13.3621 3.11605 10.2999L2.9751 9.99939L3.10558 9.72196C4.67608 6.47775 7.243 4.57535 10.0076 4.57465ZM9.99973 6.76133C8.19939 6.76133 6.74056 8.21106 6.74056 10.0003C6.74056 11.7888 8.19955 13.2384 9.99973 13.2384C11.8 13.2384 13.2597 11.7887 13.2597 10.0003C13.2597 8.21115 11.8002 6.76133 9.99973 6.76133ZM9.99973 8.00326C11.1099 8.00326 12.0097 8.89711 12.0097 10.0003C12.0097 11.1027 11.1098 11.9965 9.99973 11.9965C8.8899 11.9965 7.99056 11.1029 7.99056 10.0003C7.99056 8.89689 8.88981 8.00326 9.99973 8.00326Z" fill="#CCCCCC"/>
</svg>
