<svg width="20" height="20" viewBox="0 0 20 20" fill="none" xmlns="http://www.w3.org/2000/svg">
<path fill-rule="evenodd" clip-rule="evenodd" d="M2.00385 9.85809C0.978058 6.67157 2.34277 3.33131 5.40243 2.34624C6.86684 1.87519 8.45145 2.0447 9.77733 2.79703L9.99683 2.92874L10.2203 2.79629C11.4773 2.08458 12.9685 1.8944 14.3718 2.28036L14.5932 2.34629C17.6538 3.33166 19.0241 6.67351 17.9946 9.87112C17.4784 11.3586 16.6318 12.7072 15.5144 13.8188C13.9938 15.2956 12.3175 16.5997 10.518 17.7062L10.327 17.8249C10.133 17.9455 9.88784 17.9476 9.69187 17.8303L9.48723 17.7077C7.68528 16.5997 6.00902 15.2956 4.4832 13.8137C3.37096 12.7072 2.52439 11.3586 2.00385 9.85809ZM9.64294 4.16289L9.479 4.0453C8.39227 3.30248 7.02789 3.10289 5.77641 3.50545C3.40635 4.2685 2.33186 6.89841 3.16019 9.47203C3.61577 10.7849 4.36267 11.9747 5.33831 12.9454C6.79492 14.36 8.40054 15.6091 10.1202 16.6666L10.0012 16.5916L10.3911 16.3464C11.7523 15.4675 13.0343 14.4702 14.2198 13.3685L14.6598 12.9505C15.6407 11.9747 16.3876 10.7849 16.8388 9.48506C17.6707 6.90087 16.5915 4.26911 14.2202 3.50564C12.9062 3.08409 11.4718 3.32554 10.3635 4.15528C10.1507 4.31459 9.85906 4.31767 9.64294 4.16289Z" fill="#CCCCCC"/>
</svg>
