<svg width="49" height="48" viewBox="0 0 49 48" fill="none" xmlns="http://www.w3.org/2000/svg">
<g clip-path="url(#clip0_21_65762)">
<path d="M47.0931 45.1871H45.5931V17.4375C45.5931 16.6609 44.9635 16.0312 44.1869 16.0312H38.562C37.7854 16.0312 37.1558 16.6609 37.1558 17.4375V45.1871H34.3433V26.8124C34.3433 26.0357 33.7137 25.4061 32.9371 25.4061H27.3121C26.5355 25.4061 25.9059 26.0357 25.9059 26.8124V45.1871H23.0934V31.9685C23.0934 31.1919 22.4638 30.5623 21.6872 30.5623H16.0623C15.2857 30.5623 14.6561 31.1919 14.6561 31.9685V45.1871H11.8436V35.3435C11.8436 34.5669 11.214 33.9373 10.4374 33.9373H4.81244C4.03583 33.9373 3.40621 34.5669 3.40621 35.3435V45.1871H1.90623C1.12962 45.1871 0.5 45.8167 0.5 46.5933C0.5 47.3699 1.12962 47.9996 1.90623 47.9996H47.0931C47.8697 47.9996 48.4993 47.3699 48.4993 46.5933C48.4993 45.8167 47.8697 45.1871 47.0931 45.1871Z" fill="#17ACFF"/>
<path d="M1.90623 30.2159C10.6828 30.2159 20.2004 27.0639 28.7058 21.3404C35.3671 16.8578 40.9199 11.1314 44.3692 5.26766L45.7349 10.3645C45.9033 10.9928 46.7161 11.5356 47.4571 11.3588C48.2126 11.1786 48.6524 10.3867 48.4514 9.63653L46.1487 1.04259C45.9476 0.292506 45.1769 -0.1528 44.4264 0.048291L35.8325 2.35104C35.0823 2.55204 34.6372 3.32312 34.8382 4.0733C35.0393 4.82348 35.81 5.26878 36.5604 5.0676L42.0968 3.58412C38.8788 9.17585 33.5607 14.6834 27.1356 19.007C19.0893 24.4216 10.1294 27.4034 1.90623 27.4034C1.12962 27.4034 0.5 28.033 0.5 28.8096C0.5 29.5863 1.12962 30.2159 1.90623 30.2159V30.2159Z" fill="#48D413"/>
</g>
<defs>
<clipPath id="clip0_21_65762">
<rect width="48" height="48" fill="white" transform="translate(0.5)"/>
</clipPath>
</defs>
</svg>
