<svg width="49" height="48" viewBox="0 0 49 48" fill="none" xmlns="http://www.w3.org/2000/svg">
<g clip-path="url(#clip0_21_65845)">
<path d="M35.7499 16.9688C28.771 16.9688 23.0938 22.6459 23.0938 29.6248C23.0938 36.6037 28.7709 42.2809 35.7498 42.2809C42.7287 42.2809 48.4996 36.6037 48.4996 29.6248C48.4996 22.6459 42.7288 16.9688 35.7499 16.9688ZM37.1931 36.4019C37.1809 36.4064 37.1682 36.4043 37.156 36.4086V38.0622C37.156 38.8395 36.527 39.4685 35.7497 39.4685C34.9724 39.4685 34.3435 38.8395 34.3435 38.0622V36.399C33.4173 36.0861 32.5299 35.4922 31.7712 34.5878C31.2714 33.9932 31.3483 33.106 31.9443 32.6076C32.539 32.1077 33.4288 32.1846 33.9246 32.7806C34.6689 33.6664 35.5107 34.0179 36.2304 33.7598C36.7838 33.5579 37.156 33.0264 37.156 32.4373C37.156 31.6614 36.5256 31.0311 35.7497 31.0311C33.4234 31.0311 31.5311 29.1386 31.5311 26.8124C31.5311 25.1137 32.5418 23.5879 34.106 22.9261C34.1834 22.8933 34.2655 22.8952 34.3436 22.8672V21.1875C34.3436 20.4102 34.9725 19.7812 35.7498 19.7812C36.5271 19.7812 37.1561 20.4102 37.1561 21.1875V22.8698C37.8842 23.1158 38.5943 23.5068 39.2283 24.1208C39.7858 24.6606 39.7996 25.5504 39.2585 26.1094C38.7188 26.6669 37.8275 26.6793 37.27 26.1396C36.5861 25.4763 35.8294 25.2483 35.2032 25.5161C34.6813 25.7372 34.3435 26.2453 34.3435 26.8125C34.3435 27.5884 34.9738 28.2188 35.7497 28.2188C38.076 28.2188 39.9684 30.1112 39.9684 32.4374C39.9686 34.2047 38.8534 35.7977 37.1931 36.4019Z" fill="#48D413"/>
<path d="M1.90625 31.0312C1.12897 31.0312 0.5 31.6602 0.5 32.4375V46.5936C0.5 47.3708 1.12897 47.9998 1.90625 47.9998H6.12491V31.0312H1.90625Z" fill="#003FE6"/>
<path d="M33.8517 8.7773L24.0081 0.339891C23.4834 -0.113297 22.7034 -0.113297 22.1788 0.339891L12.3353 8.7773C11.8876 9.15905 11.7269 9.77977 11.9315 10.3319C12.1347 10.884 12.6607 11.2506 13.2499 11.2506H17.4685C17.4685 23.408 17.4685 35.842 17.4685 48.0001C21.0912 48.0001 23.5958 48.0001 27.3122 48.0001C28.0895 48.0001 28.7184 47.3712 28.7184 46.5939V43.3863C23.7176 40.8205 20.281 35.622 20.281 29.6254C20.281 23.6289 23.7177 18.4304 28.7184 15.8645V11.2507H32.9371C33.5262 11.2507 34.0523 10.884 34.2555 10.332C34.4602 9.77977 34.2995 9.15905 33.8517 8.7773Z" fill="#003FE6"/>
<path d="M10.4375 19.7812C9.66022 19.7812 9.03125 20.4102 9.03125 21.1875V31.0312V47.9995C11.0853 47.9995 12.6618 47.9995 14.6562 47.9995V19.7812H10.4375Z" fill="#48D413"/>
</g>
<defs>
<clipPath id="clip0_21_65845">
<rect width="48" height="48" fill="white" transform="translate(0.5)"/>
</clipPath>
</defs>
</svg>
