<svg width="18" height="18" viewBox="0 0 18 18" fill="none" xmlns="http://www.w3.org/2000/svg">
<g clip-path="url(#clip0_42_218)">
<path d="M13.0905 6.44312C10.5527 6.44312 8.48828 8.50752 8.48828 11.0453C8.48828 13.5831 10.5527 15.6475 13.0905 15.6475C15.6283 15.6475 17.7268 13.5831 17.7268 11.0453C17.7268 8.50752 15.6283 6.44312 13.0905 6.44312ZM13.6153 13.5097C13.6109 13.5114 13.6062 13.5106 13.6018 13.5121V14.1135C13.6018 14.3961 13.3731 14.6248 13.0905 14.6248C12.8078 14.6248 12.5791 14.3961 12.5791 14.1135V13.5087C12.2423 13.3949 11.9196 13.1789 11.6437 12.8501C11.462 12.6338 11.4899 12.3112 11.7067 12.13C11.9229 11.9482 12.2465 11.9761 12.4268 12.1929C12.6974 12.515 13.0036 12.6428 13.2652 12.5489C13.4665 12.4755 13.6018 12.2823 13.6018 12.068C13.6018 11.7859 13.3726 11.5567 13.0905 11.5567C12.2445 11.5567 11.5564 10.8685 11.5564 10.0226C11.5564 9.4049 11.9239 8.85007 12.4927 8.60942C12.5209 8.59749 12.5507 8.59817 12.5791 8.58801V7.97721C12.5791 7.69456 12.8078 7.46584 13.0905 7.46584C13.3731 7.46584 13.6018 7.69456 13.6018 7.97721V8.58893C13.8666 8.67839 14.1248 8.82058 14.3554 9.04388C14.5581 9.24014 14.5631 9.56373 14.3664 9.76698C14.1701 9.96972 13.846 9.97422 13.6433 9.77796C13.3946 9.53676 13.1194 9.45385 12.8917 9.55125C12.702 9.63164 12.5791 9.81641 12.5791 10.0227C12.5791 10.3048 12.8083 10.534 13.0905 10.534C13.9364 10.534 14.6245 11.2222 14.6245 12.0681C14.6246 12.7107 14.2191 13.29 13.6153 13.5097Z" fill="#48D413"/>
<path d="M0.783825 11.5568C0.501177 11.5568 0.272461 11.7855 0.272461 12.0681V17.2158C0.272461 17.4984 0.501177 17.7271 0.783825 17.7271H2.31788V11.5568H0.783825Z" fill="#003FE6"/>
<path d="M12.4004 3.46445L8.82085 0.396302C8.63008 0.231506 8.34644 0.231506 8.15567 0.396302L4.57619 3.46445C4.41341 3.60327 4.35498 3.82898 4.42936 4.02974C4.50327 4.23051 4.69452 4.36384 4.90878 4.36384H6.44284C6.44284 8.78471 6.44284 13.3062 6.44284 17.7273C7.76018 17.7273 8.67092 17.7273 10.0224 17.7273C10.305 17.7273 10.5337 17.4986 10.5337 17.2159V16.0495C8.71524 15.1165 7.46557 13.2262 7.46557 11.0456C7.46557 8.86503 8.71527 6.97465 10.5337 6.04162V4.36387H12.0678C12.282 4.36387 12.4733 4.23054 12.5472 4.02978C12.6216 3.82898 12.5632 3.60327 12.4004 3.46445Z" fill="#003FE6"/>
<path d="M3.88636 7.46594C3.60372 7.46594 3.375 7.69466 3.375 7.97731V11.5568V17.7271C4.12193 17.7271 4.6952 17.7271 5.42042 17.7271V7.46594H3.88636Z" fill="#48D413"/>
</g>
<defs>
<clipPath id="clip0_42_218">
<rect width="17.4545" height="17.4545" fill="white" transform="translate(0.272461 0.272705)"/>
</clipPath>
</defs>
</svg>
