<svg width="18" height="18" viewBox="0 0 18 18" fill="none" xmlns="http://www.w3.org/2000/svg">
<g clip-path="url(#clip0_42_1306)">
<path d="M5.50293 8.46904C5.50293 10.5332 7.17625 12.2065 9.2404 12.2065C11.3046 12.2065 12.9779 10.5332 12.9779 8.46904C12.9779 6.40489 11.3046 4.73157 9.2404 4.73157C7.17726 4.73388 5.50524 6.4059 5.50293 8.46904ZM9.2404 8.70522C8.62019 8.70869 8.09465 8.24934 8.0153 7.63419C7.93595 7.01918 8.32764 6.44131 8.92849 6.28738V5.97142C8.92849 5.82833 9.04441 5.71241 9.1875 5.71241C9.3306 5.71241 9.44652 5.82833 9.44652 5.97142V6.27162C10.0342 6.37107 10.4632 6.88201 10.4594 7.47823C10.4594 7.61959 10.3448 7.73421 10.2035 7.73421C10.0621 7.73421 9.94749 7.61959 9.94749 7.47823C9.94705 7.08697 9.62965 6.77014 9.23838 6.77057C8.84712 6.771 8.53029 7.08856 8.53087 7.47982C8.5313 7.87094 8.84885 8.18777 9.24012 8.18719C9.87449 8.19081 10.4013 8.67761 10.455 9.30982C10.5086 9.94189 10.0712 10.5105 9.44652 10.6209V10.9297C9.44652 11.0728 9.3306 11.1887 9.1875 11.1887C9.04441 11.1887 8.92849 11.0728 8.92849 10.9297V10.605C8.38719 10.4621 8.00894 9.97412 8.00532 9.41432C8.00532 9.26964 8.12269 9.15228 8.26737 9.15228C8.41205 9.15228 8.52942 9.26964 8.52942 9.41432C8.53029 9.7761 8.80289 10.0795 9.1625 10.1189C9.1758 10.1168 9.18938 10.1158 9.20297 10.1156C9.22248 10.1156 9.24185 10.1179 9.26093 10.1223C9.64945 10.1127 9.95775 9.79215 9.95211 9.40363C9.94647 9.01496 9.62892 8.70348 9.2404 8.70522V8.70522Z" fill="#003FE6"/>
<path d="M15.239 13.9881C15.2371 13.9891 15.2351 13.9901 15.2329 13.9912L12.8285 15.1271C12.8544 15.2602 12.8657 15.3956 12.8621 15.5312C12.8583 15.6714 12.7436 15.7831 12.6034 15.7831C12.6009 15.7831 12.5984 15.7831 12.596 15.7831L9.07705 15.6863C8.93396 15.6824 8.82122 15.5633 8.82512 15.4202C8.82902 15.2771 8.94827 15.1644 9.09122 15.1683L12.3258 15.2573C12.2186 14.6304 11.6841 14.1662 11.0484 14.1477L8.9078 14.0889C8.48502 14.0767 8.07049 13.9696 7.69483 13.7755L7.47701 13.6628C6.40728 13.1054 5.11829 13.178 4.11794 13.852L4.03223 16.966L4.40008 16.769C4.76561 16.5725 5.1933 16.5256 5.59281 16.6385L9.22564 17.6582C9.92578 17.8016 10.6534 17.7204 11.3047 17.4258L16.3377 14.1702C16.0505 13.8762 15.6057 13.8024 15.239 13.9881V13.9881Z" fill="#48D413"/>
<path d="M1.66797 17.5067L1.7956 12.8735L3.62516 12.924L3.49754 17.5572L1.66797 17.5067Z" fill="#003FE6"/>
<path d="M9.48385 3.34386V0.531718C9.48385 0.388625 9.36793 0.272705 9.22483 0.272705C9.08174 0.272705 8.96582 0.388625 8.96582 0.531718V3.34386C8.96582 3.48695 9.08174 3.60287 9.22483 3.60287C9.36793 3.60287 9.48385 3.48695 9.48385 3.34386Z" fill="#48D413"/>
<path d="M11.7036 3.34389V2.01182C11.7036 1.86873 11.5877 1.75281 11.4446 1.75281C11.3015 1.75281 11.1855 1.86873 11.1855 2.01182V3.34389C11.1855 3.48698 11.3015 3.6029 11.4446 3.6029C11.5877 3.6029 11.7036 3.48698 11.7036 3.34389Z" fill="#48D413"/>
<path d="M7.26314 3.34389V2.01182C7.26314 1.86873 7.14722 1.75281 7.00413 1.75281C6.86104 1.75281 6.74512 1.86873 6.74512 2.01182V3.34389C6.74512 3.48698 6.86104 3.6029 7.00413 3.6029C7.14722 3.6029 7.26314 3.48698 7.26314 3.34389Z" fill="#48D413"/>
</g>
<defs>
<clipPath id="clip0_42_1306">
<rect width="17.4545" height="17.4545" fill="white" transform="translate(0.272461 0.272705)"/>
</clipPath>
</defs>
</svg>
