<svg width="18" height="18" viewBox="0 0 18 18" fill="none" xmlns="http://www.w3.org/2000/svg">
<g clip-path="url(#clip0_42_1241)">
<path d="M12.5162 7.13853C12.5162 7.01496 12.4682 6.89645 12.3827 6.80907C12.2973 6.72169 12.1815 6.67261 12.0607 6.67261H0.727975C0.60717 6.67261 0.491314 6.72169 0.405892 6.80907C0.32047 6.89645 0.272481 7.01496 0.272481 7.13853V13.8478C0.271281 14.1276 0.32412 14.4048 0.427965 14.6637C0.531809 14.9225 0.684613 15.1579 0.877605 15.3561C1.0706 15.5544 1.29997 15.7117 1.55257 15.8191C1.80516 15.9264 2.076 15.9817 2.34953 15.9817H13.3634C12.8228 15.4124 12.5191 14.6508 12.5162 13.8571V7.13853ZM1.43854 9.00221C1.43854 8.87864 1.48653 8.76013 1.57196 8.67275C1.65738 8.58538 1.77323 8.53629 1.89404 8.53629H6.1939C6.3147 8.53629 6.43056 8.58538 6.51598 8.67275C6.6014 8.76013 6.64939 8.87864 6.64939 9.00221V12.7296C6.64939 12.8531 6.6014 12.9717 6.51598 13.059C6.43056 13.1464 6.3147 13.1955 6.1939 13.1955H1.89404C1.77323 13.1955 1.65738 13.1464 1.57196 13.059C1.48653 12.9717 1.43854 12.8531 1.43854 12.7296V9.00221ZM10.7488 15.0499H1.89404C1.77323 15.0499 1.65738 15.0008 1.57196 14.9134C1.48653 14.826 1.43854 14.7075 1.43854 14.5839C1.43854 14.4604 1.48653 14.3419 1.57196 14.2545C1.65738 14.1671 1.77323 14.118 1.89404 14.118H10.7488C10.8696 14.118 10.9855 14.1671 11.0709 14.2545C11.1563 14.3419 11.2043 14.4604 11.2043 14.5839C11.2043 14.7075 11.1563 14.826 11.0709 14.9134C10.9855 15.0008 10.8696 15.0499 10.7488 15.0499ZM10.7488 13.1862H8.01587C7.89507 13.1862 7.77921 13.1371 7.69379 13.0497C7.60837 12.9623 7.56038 12.8438 7.56038 12.7203C7.56038 12.5967 7.60837 12.4782 7.69379 12.3908C7.77921 12.3034 7.89507 12.2543 8.01587 12.2543H10.7488C10.8696 12.2543 10.9855 12.3034 11.0709 12.3908C11.1563 12.4782 11.2043 12.5967 11.2043 12.7203C11.2043 12.8438 11.1563 12.9623 11.0709 13.0497C10.9855 13.1371 10.8696 13.1862 10.7488 13.1862ZM10.7488 11.3225H8.01587C7.89507 11.3225 7.77921 11.2734 7.69379 11.186C7.60837 11.0987 7.56038 10.9801 7.56038 10.8566C7.56038 10.733 7.60837 10.6145 7.69379 10.5271C7.77921 10.4397 7.89507 10.3907 8.01587 10.3907H10.7488C10.8696 10.3907 10.9855 10.4397 11.0709 10.5271C11.1563 10.6145 11.2043 10.733 11.2043 10.8566C11.2043 10.9801 11.1563 11.0987 11.0709 11.186C10.9855 11.2734 10.8696 11.3225 10.7488 11.3225ZM10.7488 9.45881H8.01587C7.89507 9.45881 7.77921 9.40972 7.69379 9.32235C7.60837 9.23497 7.56038 9.11646 7.56038 8.99289C7.56038 8.86932 7.60837 8.75081 7.69379 8.66344C7.77921 8.57606 7.89507 8.52697 8.01587 8.52697H10.7488C10.8696 8.52697 10.9855 8.57606 11.0709 8.66344C11.1563 8.75081 11.2043 8.86932 11.2043 8.99289C11.2043 9.11646 11.1563 9.23497 11.0709 9.32235C10.9855 9.40972 10.8696 9.45881 10.7488 9.45881ZM5.7384 12.2543H2.34953V9.45881H5.7384V12.2543Z" fill="#003FE6"/>
<path d="M17.7269 2.771L17.7176 13.7353C17.7368 14.0231 17.6963 14.3118 17.5986 14.5834C17.5009 14.855 17.348 15.1039 17.1495 15.3144C16.951 15.525 16.7111 15.6929 16.4446 15.8077C16.1781 15.9225 15.8906 15.9817 15.6001 15.9817C15.3096 15.9817 15.0222 15.9225 14.7557 15.8077C14.4892 15.6929 14.2492 15.525 14.0507 15.3144C13.8522 15.1039 13.6994 14.855 13.6017 14.5834C13.504 14.3118 13.4635 14.0231 13.4827 13.7353V6.4211C13.4827 6.29856 13.4337 6.18104 13.3464 6.09439C13.2591 6.00774 13.1408 5.95906 13.0173 5.95906H5.21777V2.771C5.21777 2.64846 5.2668 2.53094 5.35408 2.44429C5.44135 2.35764 5.55972 2.30896 5.68314 2.30896H17.2615C17.3849 2.30896 17.5033 2.35764 17.5906 2.44429C17.6778 2.53094 17.7269 2.64846 17.7269 2.771Z" fill="#48D413"/>
</g>
<defs>
<clipPath id="clip0_42_1241">
<rect width="17.4545" height="17.4545" fill="white" transform="translate(0.272461 0.272705)"/>
</clipPath>
</defs>
</svg>
