<svg width="18" height="18" viewBox="0 0 18 18" fill="none" xmlns="http://www.w3.org/2000/svg">
<g clip-path="url(#clip0_42_276)">
<path d="M16.2807 11.4119C16.2047 11.3695 16.1252 11.3334 16.0432 11.304V6.68328C16.1259 6.66094 16.2056 6.62898 16.2807 6.58808C16.6131 6.39817 16.8558 6.08582 16.9557 5.71943C17.0556 5.35303 17.0045 4.96244 16.8137 4.63317C16.6193 4.30699 16.3029 4.06953 15.9328 3.97214C15.5627 3.87475 15.1688 3.92524 14.836 4.11271C14.7603 4.15621 14.6893 4.20725 14.6242 4.26504L10.5854 1.96104C10.5921 1.87442 10.5921 1.78742 10.5854 1.7008C10.5854 1.32205 10.4332 0.958806 10.1623 0.690986C9.89134 0.423165 9.52388 0.272705 9.14072 0.272705C8.75756 0.272705 8.39009 0.423165 8.11916 0.690986C7.84823 0.958806 7.69602 1.32205 7.69602 1.7008C7.68937 1.78742 7.68937 1.87442 7.69602 1.96104L3.70864 4.26504C3.64345 4.20725 3.57245 4.15621 3.49675 4.11271C3.16404 3.92524 2.77006 3.87475 2.39999 3.97214C2.02992 4.06953 1.71349 4.30699 1.51912 4.63317C1.3283 4.96244 1.27725 5.35303 1.37714 5.71943C1.47702 6.08582 1.7197 6.39817 2.05205 6.58808C2.12716 6.62898 2.20691 6.66094 2.28963 6.68328V11.304C2.20758 11.3334 2.12812 11.3695 2.05205 11.4119C1.7197 11.6018 1.47702 11.9141 1.37714 12.2805C1.27725 12.6469 1.3283 13.0375 1.51912 13.3668C1.61624 13.5246 1.74394 13.662 1.8949 13.7709C2.04586 13.8798 2.2171 13.9582 2.39878 14.0015C2.51006 14.0432 2.62683 14.0689 2.74551 14.0777C2.99999 14.0776 3.25007 14.012 3.47107 13.8873C3.54677 13.8437 3.61777 13.7927 3.68296 13.7349L7.7217 16.0389C7.71505 16.1255 7.71505 16.2125 7.7217 16.2992C7.7217 16.6779 7.87391 17.0411 8.14484 17.309C8.41578 17.5768 8.78324 17.7272 9.1664 17.7272C9.54956 17.7272 9.91702 17.5768 10.188 17.309C10.4589 17.0411 10.6111 16.6779 10.6111 16.2992C10.6177 16.2125 10.6177 16.1255 10.6111 16.0389L14.6498 13.7349C14.715 13.7927 14.786 13.8437 14.8617 13.8873C15.0827 14.012 15.3328 14.0776 15.5873 14.0777C15.7133 14.0796 15.8389 14.0624 15.9597 14.0269C16.1414 13.9836 16.3126 13.9052 16.4636 13.7963C16.6145 13.6874 16.7422 13.55 16.8394 13.3922C16.9369 13.2265 16.9998 13.0433 17.0245 12.8532C17.0491 12.6631 17.035 12.4701 16.9829 12.2855C16.9308 12.1009 16.8419 11.9285 16.7213 11.7784C16.6007 11.6284 16.4509 11.5037 16.2807 11.4119ZM15.08 11.3103C14.7538 11.4182 14.4789 11.6406 14.3073 11.9353C14.1357 12.2301 14.0794 12.5768 14.149 12.9098L10.0974 15.2201C9.84044 14.9957 9.50933 14.8718 9.1664 14.8718C8.82347 14.8718 8.49237 14.9957 8.23537 15.2201L4.18379 12.9098C4.2534 12.5768 4.19708 12.2301 4.02551 11.9353C3.85394 11.6406 3.57901 11.4182 3.25276 11.3103V6.68328C3.57949 6.572 3.85362 6.34619 4.02327 6.04857C4.19409 5.75249 4.25109 5.40541 4.18379 5.07112L8.23537 2.77981C8.49237 3.00426 8.82347 3.12813 9.1664 3.12813C9.50933 3.12813 9.84044 3.00426 10.0974 2.77981L14.149 5.09016C14.0798 5.42369 14.1345 5.77072 14.3031 6.06761C14.4728 6.36523 14.7469 6.59104 15.0736 6.70233L15.08 11.3103Z" fill="#003FE6"/>
<path d="M8.68432 9.2729L5.79492 7.62265V10.6502C5.79518 10.7334 5.81719 10.8151 5.85881 10.8874C5.90044 10.9597 5.96027 11.0201 6.03249 11.0628L8.68432 12.5734V9.2729Z" fill="#48D413"/>
<path d="M9.16589 8.44778L12.0553 6.80387L9.40988 5.28692C9.3351 5.24636 9.25119 5.2251 9.16589 5.2251C9.08059 5.2251 8.99668 5.24636 8.9219 5.28692L6.27649 6.80387L9.16589 8.44778Z" fill="#48D413"/>
<path d="M12.5369 7.62265L9.64746 9.2729V12.5734L12.2993 11.0628C12.3715 11.0201 12.4313 10.9597 12.473 10.8874C12.5146 10.8151 12.5366 10.7334 12.5369 10.6502V7.62265Z" fill="#48D413"/>
</g>
<defs>
<clipPath id="clip0_42_276">
<rect width="17.4545" height="17.4545" fill="white" transform="translate(0.454102 0.272705)"/>
</clipPath>
</defs>
</svg>
