<svg width="24" height="24" viewBox="0 0 24 24" fill="none" xmlns="http://www.w3.org/2000/svg">
<path d="M21.0288 14.0896C20.9998 13.9953 20.9525 13.9077 20.8896 13.8318C20.8267 13.7559 20.7494 13.6931 20.6622 13.647C20.575 13.601 20.4796 13.5725 20.3814 13.5634C20.2832 13.5542 20.1842 13.5645 20.09 13.5937C18.7478 13.9626 17.3317 13.9693 15.986 13.6131C14.6404 13.2568 13.4131 12.5504 12.4292 11.5656C11.4453 10.5809 10.7399 9.35305 10.3848 8.00707C10.0297 6.66109 10.0376 5.24505 10.4077 3.90311C10.4466 3.77335 10.4496 3.63549 10.4165 3.50415C10.3833 3.37281 10.3152 3.25289 10.2194 3.15712C10.1236 3.06136 10.0037 2.99332 9.87234 2.96023C9.74098 2.92714 9.60312 2.93023 9.47338 2.96918C7.89679 3.41058 6.46326 4.25712 5.3154 5.42455C4.16755 6.59199 3.34539 8.03964 2.93072 9.62348C2.51606 11.2073 2.52333 12.8721 2.95183 14.4523C3.38033 16.0324 4.21511 17.4728 5.37312 18.6302C6.53113 19.7875 7.97201 20.6215 9.5524 21.0491C11.1328 21.4767 12.7976 21.4831 14.3812 21.0675C15.9648 20.652 17.412 19.829 18.5788 18.6805C19.7456 17.532 20.5913 16.098 21.0318 14.5211C21.0731 14.3801 21.0721 14.23 21.0288 14.0896Z" fill="white"/>
</svg>
