<svg width="18" height="18" viewBox="0 0 18 18" fill="none" xmlns="http://www.w3.org/2000/svg">
<g clip-path="url(#clip0_42_1256)">
<path d="M7.22656 12.9957C7.6963 14.0849 8.35126 15.0726 9.18096 15.9414C10.0107 15.0726 10.6657 14.0849 11.1354 12.9957H7.22656Z" fill="#003FE6"/>
<path d="M7.90521 1.95593C7.01629 2.11623 6.16415 2.44343 5.39336 2.92521C4.53519 3.46159 3.80349 4.17174 3.24219 5.00485H6.12219C6.55037 3.89325 7.14768 2.87216 7.90521 1.95593V1.95593Z" fill="#48D413"/>
<path d="M10.458 16.0446C11.3469 15.8844 12.1991 15.5571 12.9699 15.0754C13.828 14.539 14.5597 13.8288 15.121 12.9957H12.241C11.8128 14.1073 11.2155 15.1284 10.458 16.0446V16.0446Z" fill="#48D413"/>
<path d="M15.121 5.00482C14.5597 4.17171 13.828 3.46156 12.9699 2.92517C12.1991 2.4434 11.3469 2.11623 10.458 1.95593C11.2155 2.87216 11.8128 3.89325 12.241 5.00485H15.121V5.00482Z" fill="#48D413"/>
<path d="M11.1354 5.00526C10.6657 3.91613 10.0107 2.92834 9.18099 2.05957C8.35122 2.92838 7.6963 3.91613 7.22656 5.00526H11.1354Z" fill="#003FE6"/>
<path d="M3.24219 12.9958C3.80349 13.8289 4.53519 14.539 5.39336 15.0754C6.16415 15.5572 7.01629 15.8844 7.90521 16.0446C7.14768 15.1284 6.55037 14.1073 6.12219 12.9957H3.24219V12.9958Z" fill="#48D413"/>
<path d="M1.4541 6.02759C0.901818 6.02759 0.454102 6.4753 0.454102 7.02759V10.973C0.454102 11.5253 0.901817 11.973 1.4541 11.973H16.9086C17.4609 11.973 17.9086 11.5253 17.9086 10.973V7.02759C17.9086 6.4753 17.4609 6.02759 16.9086 6.02759H1.4541ZM5.81889 10.729H5.07874L3.71572 8.55976V10.7749H2.93087V7.01329L3.67102 7.01343L5.03404 9.18263V7.00777H5.81889V10.729ZM8.31696 7.80625H7.07183V8.49891H8.22516V9.28375H7.07183V9.97641H8.31696V10.7612H6.28695V9.28375V8.49891V7.02137H8.31696V7.80625ZM12.0151 10.7495L11.2708 10.7545L10.6601 8.63636L10.0489 10.7496L9.3042 10.7547L8.584 7.11376L9.35394 6.96147L9.74936 8.96043L10.3003 7.0555L11.0214 7.05642L11.5708 8.96166L11.9678 6.96662L12.7376 7.11983L12.0151 10.7495ZM15.4166 9.8051C15.3163 10.3671 14.7804 10.7749 14.1424 10.7749C13.6259 10.7749 13.1412 10.5668 12.8123 10.2039L13.3939 9.67688C13.5716 9.87297 13.8514 9.99004 14.1424 9.99004C14.4203 9.99004 14.6156 9.82586 14.644 9.66713C14.682 9.45427 14.3639 9.3193 14.2655 9.283C13.8024 9.11217 13.3911 8.9291 13.3738 8.92139L13.3454 8.90871L13.3194 8.89174C12.9984 8.68252 12.8331 8.31556 12.8878 7.93416C12.9461 7.52813 13.2426 7.19752 13.6617 7.07125C14.4866 6.82276 15.1651 7.38239 15.1936 7.40633L14.6886 8.00714L14.691 8.00912C14.6872 8.00602 14.3018 7.69814 13.8881 7.82275C13.7076 7.87716 13.6717 7.99678 13.6647 8.04567C13.6598 8.07976 13.6573 8.16106 13.7287 8.22004C13.836 8.26699 14.1741 8.41272 14.5371 8.5466C15.3009 8.82839 15.4922 9.38148 15.4166 9.8051Z" fill="#003FE6"/>
</g>
<defs>
<clipPath id="clip0_42_1256">
<rect width="17.4545" height="17.4545" fill="white" transform="translate(0.454102 0.272705)"/>
</clipPath>
</defs>
</svg>
