<svg width="18" height="18" viewBox="0 0 18 18" fill="none" xmlns="http://www.w3.org/2000/svg">
<g clip-path="url(#clip0_42_949)">
<path d="M17.2154 16.7044H16.67V6.61365C16.67 6.33125 16.441 6.10229 16.1586 6.10229H14.1132C13.8308 6.10229 13.6018 6.33125 13.6018 6.61365V16.7044H12.5791V10.0227C12.5791 9.74029 12.3502 9.51134 12.0678 9.51134H10.0223C9.73992 9.51134 9.51097 9.74029 9.51097 10.0227V16.7044H8.48826V11.8977C8.48826 11.6153 8.25931 11.3863 7.9769 11.3863H5.93147C5.64907 11.3863 5.42012 11.6153 5.42012 11.8977V16.7044H4.3974V13.1249C4.3974 12.8425 4.16845 12.6136 3.88605 12.6136H1.84062C1.55822 12.6136 1.32926 12.8425 1.32926 13.1249V16.7044H0.783818C0.501412 16.7044 0.272461 16.9334 0.272461 17.2158C0.272461 17.4982 0.501412 17.7271 0.783818 17.7271H17.2154C17.4978 17.7271 17.7268 17.4982 17.7268 17.2158C17.7268 16.9334 17.4978 16.7044 17.2154 16.7044Z" fill="#003FE6"/>
<path d="M0.783818 11.2603C3.9753 11.2603 7.43623 10.1141 10.5291 8.03285C12.9514 6.40282 14.9706 4.32047 16.2249 2.18822L16.7215 4.04161C16.7827 4.27009 17.0783 4.46747 17.3478 4.40317C17.6225 4.33765 17.7824 4.04969 17.7093 3.7769L16.872 0.651829C16.7989 0.379071 16.5186 0.217141 16.2457 0.290265L13.1206 1.12763C12.8478 1.20072 12.686 1.48111 12.7591 1.7539C12.8322 2.0267 13.1125 2.18863 13.3853 2.11547L15.3986 1.57602C14.2284 3.60938 12.2945 5.61212 9.95813 7.18434C7.03222 9.15327 3.77406 10.2376 0.783818 10.2376C0.501412 10.2376 0.272461 10.4665 0.272461 10.7489C0.272461 11.0313 0.501412 11.2603 0.783818 11.2603V11.2603Z" fill="#48D413"/>
</g>
<defs>
<clipPath id="clip0_42_949">
<rect width="17.4545" height="17.4545" fill="white" transform="translate(0.272461 0.272705)"/>
</clipPath>
</defs>
</svg>
