<svg width="137" height="24" viewBox="0 0 137 24" fill="none" xmlns="http://www.w3.org/2000/svg">
<path d="M30.8378 11.5071C30.8255 11.3041 30.8105 11.1011 30.7902 10.9018C30.7637 10.6323 30.7284 10.3629 30.6834 10.098C30.2094 7.27289 28.7688 4.70952 26.6165 2.86146C24.4643 1.0134 21.7392 -0.000201652 18.9233 3.00914e-08C18.8245 3.00914e-08 18.7257 3.00914e-08 18.6268 3.00914e-08C15.8735 0.0700464 13.2287 1.10719 11.1409 2.93555C9.05313 4.76391 7.65092 7.27095 7.17204 10.0315C7.14027 10.2189 7.11233 10.4081 7.08821 10.5991C7.07321 10.7141 7.06174 10.8299 7.05116 10.944C7.03439 11.1065 7.02116 11.27 7.01322 11.4334C6.99998 11.6687 6.99292 11.904 6.99292 12.1429C6.99292 12.3818 6.99998 12.6189 7.01322 12.8551C7.02292 13.0185 7.03439 13.1802 7.05027 13.3427C7.06351 13.4855 7.08027 13.6274 7.10057 13.7675C8.10293 13.8439 9.18117 13.9121 10.3106 13.9687C10.8806 13.9956 11.4656 14.0217 12.0603 14.0441C12.025 13.904 11.9933 13.7639 11.9668 13.622C11.9333 13.4622 11.9068 13.2996 11.8847 13.1344C11.8339 12.7688 11.8086 12.3999 11.8088 12.0307C11.8082 11.7384 11.8241 11.4463 11.8565 11.1559C11.8733 10.9916 11.8962 10.8299 11.9235 10.6692C11.9483 10.5264 11.9747 10.3827 12.0074 10.2444C12.0435 10.0791 12.0859 9.91658 12.1327 9.75672C12.614 8.11257 13.604 6.67052 14.9553 5.64511C16.3067 4.6197 17.9472 4.06572 19.6327 4.0656C19.9587 4.0655 20.2843 4.0859 20.6077 4.12667C21.9153 4.29236 23.1601 4.79327 24.2254 5.58245L24.326 5.6534C25.1143 6.22288 25.8007 6.92579 26.3554 7.73155C26.8066 8.39034 27.1632 9.11127 27.4143 9.87257C27.4681 10.0351 27.5184 10.2004 27.5616 10.3656C27.5616 10.3809 27.5704 10.3979 27.574 10.4132C27.5775 10.4285 27.5819 10.4438 27.5854 10.4599C27.604 10.5282 27.619 10.5973 27.634 10.6656C27.6437 10.7069 27.6543 10.7491 27.6622 10.7904C27.6975 10.9521 27.7275 11.1164 27.7504 11.2799C27.8393 11.8484 27.8736 12.4244 27.8528 12.9997C27.8528 13.1622 27.8396 13.3239 27.8246 13.4855C27.8122 13.6274 27.7972 13.7693 27.7787 13.9094C27.7575 14.0729 27.7319 14.2345 27.7001 14.3971C27.5788 15.0548 27.3859 15.6967 27.1248 16.3109C26.3194 18.2009 24.9208 19.7656 23.148 20.76C24.3904 20.1396 25.4804 19.2439 26.338 18.1387C27.1957 17.0334 27.7992 15.7466 28.1043 14.3728C28.1413 14.2112 28.1731 14.0486 28.2013 13.8852C28.2251 13.7451 28.2463 13.6023 28.2631 13.4604C28.2834 13.2978 28.3001 13.1344 28.3116 12.9727C28.3801 12.0707 28.3207 11.1633 28.1351 10.2785C27.9167 9.23023 27.5182 8.2294 26.9581 7.32203C26.3919 6.41042 25.6755 5.60501 24.8404 4.94123C23.9996 4.27403 23.0567 3.75216 22.0495 3.39653C21.0378 3.0417 19.9781 2.84901 18.9083 2.82535C18.8995 2.82445 18.8906 2.82445 18.8818 2.82535C18.86 2.82536 18.8381 2.82717 18.8165 2.83074L18.8051 2.79123C19.944 2.74805 21.0813 2.91259 22.1633 3.27709C23.512 3.73929 24.7435 4.49935 25.7696 5.50281C26.7958 6.50627 27.5913 7.7283 28.099 9.08137C28.5599 10.3151 28.7776 11.6291 28.7396 12.9485C28.7396 13.1003 28.729 13.252 28.7175 13.4029C28.7183 13.4137 28.7183 13.4245 28.7175 13.4352C28.7078 13.5762 28.6946 13.7163 28.6778 13.8582C28.6572 14.0217 28.6331 14.1848 28.6054 14.3477C28.4111 15.4991 28.023 16.6077 27.4584 17.6248C26.7204 18.9402 25.7053 20.0729 24.486 20.9416C23.2667 21.8102 21.8735 22.3932 20.4066 22.6486C20.0364 22.7119 19.6632 22.7554 19.2886 22.7789C19.1024 22.7869 18.9145 22.7986 18.7274 22.7986C18.5404 22.7986 18.3498 22.7986 18.1627 22.7869C17.4075 22.7521 16.6584 22.6316 15.9295 22.4277C16.6536 22.6665 17.4013 22.8237 18.1592 22.8965C18.3489 22.9145 18.5377 22.927 18.7292 22.9369C18.9207 22.9468 19.1095 22.9423 19.301 22.9423C19.6829 22.9378 20.0643 22.9126 20.4436 22.8669C21.9764 22.6734 23.4481 22.137 24.7531 21.2961C25.9659 20.5134 27.0101 19.4883 27.8223 18.2828C28.6344 17.0773 29.1978 15.7166 29.4781 14.283C29.5116 14.1205 29.5399 13.957 29.5663 13.7909C29.581 13.6903 29.5943 13.5897 29.606 13.4891C29.6113 13.4487 29.6166 13.4092 29.6202 13.3679C29.6378 13.2062 29.6519 13.0419 29.6616 12.8784C29.7632 11.355 29.5525 9.82675 29.0429 8.39063C28.5333 6.95452 27.7359 5.64193 26.7013 4.53619C26.4577 4.27317 26.2009 4.02317 25.9319 3.7872C26.1622 3.98028 26.3845 4.18145 26.5981 4.3934C26.7084 4.49847 26.8072 4.61522 26.9131 4.72569L27.0701 4.89273C27.1222 4.9511 27.169 5.01038 27.2193 5.07234C27.3172 5.19179 27.416 5.30764 27.5131 5.43158L27.7857 5.80158C28.1448 6.30188 28.4607 6.83282 28.7299 7.38849L28.834 7.59594L28.9222 7.80969C28.9831 7.95248 29.0484 8.09258 29.1031 8.23807C29.2055 8.52995 29.3193 8.81823 29.4005 9.11998C29.7511 10.3169 29.9029 11.565 29.8496 12.8129C29.8496 12.8317 29.8496 12.8524 29.8496 12.8713C29.8425 13.0347 29.831 13.1973 29.816 13.3589C29.8028 13.5008 29.7878 13.6409 29.7693 13.7819C29.7472 13.9463 29.7225 14.1097 29.6934 14.2732C29.3461 16.2775 28.465 18.1463 27.146 19.676C26.3219 20.628 25.3484 21.4344 24.2651 22.0622C23.7214 22.3737 23.1537 22.6396 22.5675 22.857C21.9796 23.0773 21.3737 23.2441 20.7569 23.3554C20.1389 23.4647 19.5134 23.5248 18.8863 23.535C18.2574 23.543 17.629 23.4973 17.0077 23.3985C17.6276 23.5154 18.2559 23.58 18.8863 23.5916C19.5183 23.5992 20.1499 23.5562 20.7754 23.4632C21.4024 23.3686 22.02 23.2183 22.6213 23.0142C24.082 22.5214 25.4294 21.7323 26.582 20.6945C27.7346 19.6568 28.6685 18.3919 29.3272 16.9764C28.4371 19.0393 26.9829 20.7982 25.1379 22.0433C23.2929 23.2884 21.135 23.9671 18.9215 23.9984C22.0172 24.0494 25.0064 22.8486 27.2334 20.6594C29.014 18.9192 30.2146 16.6552 30.6666 14.1851C30.6966 14.0217 30.7228 13.8573 30.7452 13.6921C30.7672 13.5502 30.784 13.4092 30.799 13.2655C30.8043 13.2179 30.8087 13.1685 30.814 13.1209C30.814 13.1057 30.814 13.0886 30.814 13.0715C30.8202 12.9736 30.8272 12.8766 30.8325 12.7779C30.8437 12.5659 30.8493 12.3531 30.8493 12.1393C30.8528 11.9301 30.8475 11.7172 30.8378 11.5071ZM25.1969 3.21602L25.1889 3.20883C25.1556 3.18323 25.1259 3.153 25.1007 3.11902C25.3856 3.32309 25.6598 3.54222 25.9222 3.77552C25.6848 3.58064 25.4439 3.39473 25.1969 3.21602ZM14.9862 18.3837C14.0747 17.2907 12.9162 16.2139 12.4688 15.2296C12.4688 15.2296 12.4688 15.2242 12.4636 15.2224C12.3665 14.997 12.2791 14.7671 12.2041 14.5318L12.0444 14.5264C11.4462 14.5049 10.8612 14.4788 10.2894 14.4519C9.17852 14.3953 8.13116 14.3306 7.17204 14.257C7.43011 15.75 7.96234 17.1802 8.74087 18.4726C8.74198 18.4757 8.7438 18.4784 8.74617 18.4806C8.81676 18.592 8.88823 18.7061 8.96235 18.8255C9.70252 19.9684 10.6273 20.9756 11.6977 21.8044C13.6989 23.077 15.5262 22.5328 16.0945 21.4452C16.5498 20.5678 15.8898 19.4667 14.9862 18.3837Z" fill="white"/>
<path d="M27.6426 10.666C27.6276 10.5977 27.6126 10.5286 27.594 10.4603C27.594 10.4441 27.5852 10.4289 27.5826 10.4136C27.5799 10.3983 27.5737 10.3813 27.5702 10.366C24.8402 10.2106 21.7343 10.1289 18.504 10.1289C16.2513 10.1289 14.0578 10.1702 12.008 10.2448C11.9754 10.3831 11.9489 10.5268 11.9242 10.6695C13.8901 10.5932 16.0907 10.5501 18.504 10.5501C22.0396 10.5501 25.112 10.6399 27.6708 10.7908C27.6629 10.7495 27.6523 10.7073 27.6426 10.666ZM27.6426 10.666C27.6276 10.5977 27.6126 10.5286 27.594 10.4603C27.594 10.4441 27.5852 10.4289 27.5826 10.4136C27.5799 10.3983 27.5737 10.3813 27.5702 10.366C24.8402 10.2106 21.7343 10.1289 18.504 10.1289C16.2513 10.1289 14.0578 10.1702 12.008 10.2448C11.9754 10.3831 11.9489 10.5268 11.9242 10.6695C13.8901 10.5932 16.0907 10.5501 18.504 10.5501C22.0396 10.5501 25.112 10.6399 27.6708 10.7908C27.6629 10.7495 27.6523 10.7073 27.6426 10.666ZM31.7958 10.692C31.7252 10.6866 31.6538 10.6785 31.5814 10.6695C31.5426 10.6695 31.5029 10.6633 31.4641 10.6597C31.4252 10.6561 31.4041 10.6525 31.3758 10.6507L31.1182 10.6255L30.8985 10.6049C30.8535 10.5995 30.8102 10.5968 30.7608 10.5914C30.7732 10.6956 30.7829 10.7998 30.7926 10.9022C30.7979 10.9408 30.8014 10.9803 30.8049 11.0198L30.9302 11.0297C31.0061 11.0369 31.0829 11.0431 31.157 11.0521C31.2311 11.0611 31.3247 11.0656 31.4067 11.0737L31.6229 11.0979C31.6926 11.1051 31.7614 11.1096 31.8285 11.1186C34.8126 11.4338 36.4653 11.8245 36.5932 12.1433C36.4609 12.4675 34.7959 12.8618 31.7958 13.1761C31.7402 13.1761 31.6802 13.186 31.6194 13.1914L31.3652 13.2165C31.2982 13.2237 31.2294 13.2318 31.1588 13.2372C31.0564 13.2461 30.9523 13.2578 30.8455 13.2641C30.8284 13.2678 30.811 13.2696 30.7935 13.2695C30.5491 13.2919 30.2923 13.3153 30.032 13.3341C29.9588 13.3413 29.8829 13.3467 29.8079 13.353L29.6138 13.3683L29.1726 13.3997C29.1355 13.4042 29.1002 13.406 29.0623 13.4078C28.9511 13.4168 28.8373 13.4231 28.7217 13.432L28.269 13.4608C28.1252 13.4707 27.9814 13.4796 27.8323 13.4859C27.1993 13.5254 26.5376 13.5596 25.847 13.5883C25.2451 13.3989 24.7193 13.017 24.3476 12.4993C23.976 11.9816 23.7783 11.3556 23.784 10.7145C23.7824 11.3569 23.5929 11.9843 23.2399 12.5169C22.8868 13.0494 22.3861 13.463 21.8013 13.7051C20.7519 13.7236 19.6522 13.7335 18.5022 13.7347C16.104 13.7347 13.9251 13.6964 11.9657 13.6197C11.3527 13.5964 10.7616 13.5703 10.1921 13.5416C9.04978 13.4817 8.00212 13.4147 7.04917 13.3404C6.38476 13.2857 5.76622 13.2291 5.19622 13.1698C2.18208 12.8573 0.519709 12.4648 0.410297 12.1496C0.521474 11.8254 2.18208 11.4311 5.19622 11.1123C5.76887 11.0521 6.38564 10.9964 7.04917 10.9417C7.05976 10.8276 7.07123 10.7118 7.08623 10.5968L7.09682 10.5205C6.55858 10.5609 6.03799 10.6103 5.54651 10.657L5.23592 10.6875C-3.36594e-07 11.2326 0 11.8694 0 12.1433C0 12.4172 -3.36594e-07 13.0584 5.23592 13.5973L5.54651 13.6278C6.04063 13.6772 6.55682 13.723 7.09859 13.7679C8.10095 13.8443 9.17919 13.9125 10.3086 13.9691C10.8786 13.996 11.4636 14.0221 12.0583 14.0445C14.0922 14.1173 16.2672 14.1586 18.4996 14.1586C19.6616 14.1586 20.8078 14.1478 21.924 14.1263C22.477 14.3491 22.9505 14.7375 23.2821 15.24C23.6137 15.7425 23.7878 16.3355 23.7814 16.9408C23.7845 16.3242 23.9605 15.7212 24.2887 15.2029C24.617 14.6846 25.0838 14.2724 25.6343 14.0149C26.3737 13.9862 27.0899 13.9511 27.7829 13.9098C27.924 13.9026 28.0661 13.8936 28.2038 13.8856C28.3643 13.8739 28.5205 13.8667 28.6767 13.855C28.7888 13.8461 28.8973 13.8416 29.0085 13.8326L29.0905 13.8254C29.2458 13.8155 29.4038 13.8056 29.5564 13.7913C29.6252 13.7913 29.6905 13.7814 29.7576 13.776C29.8246 13.7706 29.9146 13.7643 29.9941 13.7589C30.2455 13.7401 30.4935 13.7167 30.7361 13.6961C30.7524 13.6952 30.7686 13.6934 30.7847 13.6907C30.8958 13.6808 31.0044 13.6727 31.1147 13.6619C31.1808 13.6557 31.2488 13.6503 31.3132 13.6431C31.36 13.6368 31.4085 13.6332 31.4552 13.6278L31.5797 13.6161C31.6344 13.609 31.69 13.6054 31.7438 13.5991C37 13.0602 37 12.4217 37 12.1433C37 11.8649 37.0088 11.2344 31.7958 10.692Z" fill="white"/>
<path d="M52.52 4.8H54.728V16H53.048L48.248 9.152V16H46.04V4.8H47.72L52.52 11.632V4.8ZM59.1736 13.888H63.8936V16H56.9656V4.8H63.8136V6.912H59.1736V9.296H63.4136V11.376H59.1736V13.888ZM67.946 16L64.81 4.8H67.13L69.274 13.104L71.61 4.8H73.498L75.85 13.104L77.994 4.8H80.314L77.178 16H74.666L72.554 8.608L70.458 16H67.946ZM85.9144 4.8H88.1224V16H85.9144V4.8ZM94.7076 7.776C95.5823 7.776 96.3023 8.06933 96.8676 8.656C97.4436 9.24267 97.7316 10.0533 97.7316 11.088V16H95.6676V11.344C95.6676 10.8107 95.5236 10.4053 95.2356 10.128C94.9476 9.84 94.5636 9.696 94.0836 9.696C93.5503 9.696 93.1236 9.86133 92.8036 10.192C92.4836 10.5227 92.3236 11.0187 92.3236 11.68V16H90.2596V8H92.3236V8.896C92.825 8.14933 93.6196 7.776 94.7076 7.776ZM101.558 10.272C101.558 10.4853 101.697 10.6613 101.974 10.8C102.262 10.928 102.609 11.0453 103.014 11.152C103.419 11.248 103.825 11.376 104.23 11.536C104.635 11.6853 104.977 11.9413 105.254 12.304C105.542 12.6667 105.686 13.12 105.686 13.664C105.686 14.4853 105.377 15.12 104.758 15.568C104.15 16.0053 103.387 16.224 102.47 16.224C100.827 16.224 99.7073 15.5893 99.11 14.32L100.902 13.312C101.137 14.0053 101.659 14.352 102.47 14.352C103.206 14.352 103.574 14.1227 103.574 13.664C103.574 13.4507 103.43 13.28 103.142 13.152C102.865 13.0133 102.523 12.8907 102.118 12.784C101.713 12.6773 101.307 12.544 100.902 12.384C100.497 12.224 100.15 11.9733 99.862 11.632C99.5847 11.28 99.446 10.8427 99.446 10.32C99.446 9.53067 99.734 8.912 100.31 8.464C100.897 8.00533 101.622 7.776 102.486 7.776C103.137 7.776 103.729 7.92533 104.262 8.224C104.795 8.512 105.217 8.928 105.526 9.472L103.766 10.432C103.51 9.888 103.083 9.616 102.486 9.616C102.219 9.616 101.995 9.67467 101.814 9.792C101.643 9.90933 101.558 10.0693 101.558 10.272ZM108.197 7.04C107.856 7.04 107.557 6.91733 107.301 6.672C107.056 6.416 106.933 6.11733 106.933 5.776C106.933 5.43467 107.056 5.136 107.301 4.88C107.557 4.624 107.856 4.496 108.197 4.496C108.549 4.496 108.848 4.624 109.093 4.88C109.349 5.136 109.477 5.43467 109.477 5.776C109.477 6.11733 109.349 6.416 109.093 6.672C108.848 6.91733 108.549 7.04 108.197 7.04ZM107.173 16V8H109.237V16H107.173ZM117.414 8H119.43V15.616C119.43 16.8533 119.02 17.7973 118.198 18.448C117.388 19.0987 116.406 19.424 115.254 19.424C114.39 19.424 113.628 19.2587 112.966 18.928C112.316 18.5973 111.814 18.112 111.462 17.472L113.222 16.464C113.628 17.2107 114.326 17.584 115.318 17.584C115.969 17.584 116.481 17.4133 116.854 17.072C117.228 16.7307 117.414 16.2453 117.414 15.616V14.752C116.806 15.5627 115.953 15.968 114.854 15.968C113.724 15.968 112.774 15.5733 112.006 14.784C111.249 13.984 110.87 13.0133 110.87 11.872C110.87 10.7413 111.254 9.776 112.022 8.976C112.79 8.176 113.734 7.776 114.854 7.776C115.953 7.776 116.806 8.18133 117.414 8.992V8ZM113.558 13.456C113.985 13.8613 114.524 14.064 115.174 14.064C115.825 14.064 116.358 13.8613 116.774 13.456C117.201 13.04 117.414 12.512 117.414 11.872C117.414 11.2427 117.201 10.7253 116.774 10.32C116.358 9.904 115.825 9.696 115.174 9.696C114.524 9.696 113.985 9.904 113.558 10.32C113.142 10.7253 112.934 11.2427 112.934 11.872C112.934 12.512 113.142 13.04 113.558 13.456ZM125.91 7.776C126.785 7.776 127.505 8.06933 128.07 8.656C128.646 9.24267 128.934 10.0533 128.934 11.088V16H126.87V11.344C126.87 10.8107 126.726 10.4053 126.438 10.128C126.15 9.84 125.766 9.696 125.286 9.696C124.753 9.696 124.326 9.86133 124.006 10.192C123.686 10.5227 123.526 11.0187 123.526 11.68V16H121.462V4.8H123.526V8.896C124.027 8.14933 124.822 7.776 125.91 7.776ZM135.432 9.984H133.624V13.312C133.624 13.5893 133.694 13.792 133.832 13.92C133.971 14.048 134.174 14.1227 134.44 14.144C134.707 14.1547 135.038 14.1493 135.432 14.128V16C134.014 16.16 133.011 16.0267 132.424 15.6C131.848 15.1733 131.56 14.4107 131.56 13.312V9.984H130.168V8H131.56V6.384L133.624 5.76V8H135.432V9.984Z" fill="white"/>
</svg>
