<svg width="16" height="16" viewBox="0 0 16 16" fill="none" xmlns="http://www.w3.org/2000/svg">
<path d="M11.3333 2.3335H4.66659C2.66659 2.3335 1.33325 3.3335 1.33325 5.66683V10.3335C1.33325 12.6668 2.66659 13.6668 4.66659 13.6668H11.3333C13.3333 13.6668 14.6666 12.6668 14.6666 10.3335V5.66683C14.6666 3.3335 13.3333 2.3335 11.3333 2.3335ZM11.6466 6.3935L9.55992 8.06016C9.11992 8.4135 8.55992 8.58683 7.99992 8.58683C7.43992 8.58683 6.87325 8.4135 6.43992 8.06016L4.35325 6.3935C4.13992 6.22016 4.10659 5.90016 4.27325 5.68683C4.44659 5.4735 4.75992 5.4335 4.97325 5.60683L7.05992 7.2735C7.56659 7.68016 8.42659 7.68016 8.93325 7.2735L11.0199 5.60683C11.2333 5.4335 11.5533 5.46683 11.7199 5.68683C11.8933 5.90016 11.8599 6.22016 11.6466 6.3935Z" fill="white"/>
</svg>
