<svg width="16" height="16" viewBox="0 0 16 16" fill="none" xmlns="http://www.w3.org/2000/svg">
<path d="M3.40003 7.13903C6.26333 5.89153 8.17265 5.0691 9.12798 4.67175C11.8556 3.53722 12.4224 3.34014 12.7919 3.33356C12.8731 3.3322 13.0548 3.35233 13.1725 3.44782C13.2718 3.52845 13.2992 3.63737 13.3122 3.71381C13.3253 3.79026 13.3416 3.9644 13.3287 4.10047C13.1809 5.65356 12.5413 9.42249 12.2159 11.162C12.0782 11.898 11.8071 12.1448 11.5446 12.169C10.9743 12.2214 10.5411 11.792 9.9887 11.4299C9.12424 10.8632 8.63588 10.5105 7.79677 9.9575C6.82703 9.31846 7.45567 8.96723 8.00832 8.39322C8.15295 8.243 10.6661 5.95714 10.7147 5.74977C10.7208 5.72384 10.7264 5.62717 10.669 5.57612C10.6116 5.52508 10.5268 5.54253 10.4656 5.55641C10.3789 5.57609 8.99795 6.48887 6.32268 8.29476C5.93069 8.56393 5.57563 8.69508 5.25752 8.68821C4.90683 8.68063 4.23223 8.48992 3.73074 8.3269C3.11563 8.12696 2.62676 8.02125 2.66933 7.68168C2.69151 7.50481 2.93507 7.32392 3.40003 7.13903Z" fill="white"/>
</svg>
