<svg width="18" height="18" viewBox="0 0 18 18" fill="none" xmlns="http://www.w3.org/2000/svg">
<g clip-path="url(#clip0_42_1027)">
<path d="M13.0905 6.44336C10.5527 6.44336 8.48828 8.50777 8.48828 11.0456C8.48828 13.5834 10.5527 15.6478 13.0905 15.6478C15.6283 15.6478 17.7268 13.5834 17.7268 11.0456C17.7268 8.50777 15.6283 6.44336 13.0905 6.44336ZM13.6153 13.51C13.6109 13.5116 13.6062 13.5108 13.6018 13.5124V14.1137C13.6018 14.3964 13.3731 14.6251 13.0905 14.6251C12.8078 14.6251 12.5791 14.3964 12.5791 14.1137V13.5089C12.2423 13.3951 11.9196 13.1792 11.6437 12.8503C11.462 12.6341 11.4899 12.3115 11.7067 12.1302C11.9229 11.9484 12.2465 11.9764 12.4268 12.1931C12.6974 12.5152 13.0036 12.6431 13.2652 12.5492C13.4665 12.4758 13.6018 12.2825 13.6018 12.0683C13.6018 11.7862 13.3726 11.5569 13.0905 11.5569C12.2445 11.5569 11.5564 10.8688 11.5564 10.0229C11.5564 9.40514 11.9239 8.85031 12.4927 8.60967C12.5209 8.59773 12.5507 8.59842 12.5791 8.58826V7.97745C12.5791 7.6948 12.8078 7.46609 13.0905 7.46609C13.3731 7.46609 13.6018 7.6948 13.6018 7.97745V8.58918C13.8666 8.67863 14.1248 8.82082 14.3554 9.04412C14.5581 9.24038 14.5631 9.56397 14.3664 9.76722C14.1701 9.96996 13.846 9.97446 13.6433 9.7782C13.3946 9.53701 13.1194 9.4541 12.8917 9.5515C12.702 9.63188 12.5791 9.81665 12.5791 10.0229C12.5791 10.305 12.8083 10.5343 13.0905 10.5343C13.9364 10.5343 14.6245 11.2224 14.6245 12.0683C14.6246 12.711 14.2191 13.2902 13.6153 13.51Z" fill="#48D413"/>
<path d="M0.783825 11.5566C0.501177 11.5566 0.272461 11.7854 0.272461 12.068V17.2157C0.272461 17.4983 0.501177 17.727 0.783825 17.727H2.31788V11.5566H0.783825Z" fill="#003FE6"/>
<path d="M12.4004 3.46421L8.82085 0.396058C8.63008 0.231262 8.34644 0.231262 8.15567 0.396058L4.57619 3.46421C4.41341 3.60302 4.35498 3.82874 4.42936 4.0295C4.50327 4.23026 4.69452 4.36359 4.90878 4.36359H6.44284C6.44284 8.78447 6.44284 13.3059 6.44284 17.7271C7.76018 17.7271 8.67092 17.7271 10.0224 17.7271C10.305 17.7271 10.5337 17.4983 10.5337 17.2157V16.0493C8.71524 15.1163 7.46557 13.2259 7.46557 11.0453C7.46557 8.86478 8.71527 6.97441 10.5337 6.04138V4.36363H12.0678C12.282 4.36363 12.4733 4.2303 12.5472 4.02953C12.6216 3.82874 12.5632 3.60302 12.4004 3.46421Z" fill="#003FE6"/>
<path d="M3.88636 7.46582C3.60372 7.46582 3.375 7.69454 3.375 7.97718V11.5567V17.727C4.12193 17.727 4.6952 17.727 5.42042 17.727V7.46582H3.88636Z" fill="#48D413"/>
</g>
<defs>
<clipPath id="clip0_42_1027">
<rect width="17.4545" height="17.4545" fill="white" transform="translate(0.272461 0.272461)"/>
</clipPath>
</defs>
</svg>
