<svg width="18" height="18" viewBox="0 0 18 18" fill="none" xmlns="http://www.w3.org/2000/svg">
<g clip-path="url(#clip0_42_3)">
<path d="M7.22656 12.9961C7.6963 14.0852 8.35126 15.073 9.18096 15.9418C10.0107 15.073 10.6657 14.0852 11.1354 12.9961H7.22656Z" fill="#003FE6"/>
<path d="M7.90521 1.95605C7.01629 2.11635 6.16415 2.44355 5.39336 2.92533C4.53519 3.46171 3.80349 4.17186 3.24219 5.00497H6.12219C6.55037 3.89337 7.14768 2.87228 7.90521 1.95605V1.95605Z" fill="#48D413"/>
<path d="M10.458 16.045C11.3469 15.8847 12.1991 15.5575 12.9699 15.0757C13.828 14.5394 14.5597 13.8292 15.121 12.9961H12.241C11.8128 14.1077 11.2155 15.1288 10.458 16.045V16.045Z" fill="#48D413"/>
<path d="M15.121 5.00494C14.5597 4.17183 13.828 3.46168 12.9699 2.92529C12.1991 2.44352 11.3469 2.11635 10.458 1.95605C11.2155 2.87228 11.8128 3.89337 12.241 5.00497H15.121V5.00494Z" fill="#48D413"/>
<path d="M11.1354 5.00526C10.6657 3.91613 10.0107 2.92834 9.18099 2.05957C8.35122 2.92838 7.6963 3.91613 7.22656 5.00526H11.1354Z" fill="#003FE6"/>
<path d="M3.24219 12.9961C3.80349 13.8292 4.53519 14.5394 5.39336 15.0758C6.16415 15.5575 7.01629 15.8847 7.90521 16.045C7.14768 15.1288 6.55037 14.1077 6.12219 12.9961H3.24219V12.9961Z" fill="#48D413"/>
<path d="M1.4541 6.02734C0.901818 6.02734 0.454102 6.47506 0.454102 7.02734V10.9728C0.454102 11.5251 0.901817 11.9728 1.4541 11.9728H16.9086C17.4609 11.9728 17.9086 11.5251 17.9086 10.9728V7.02734C17.9086 6.47506 17.4609 6.02734 16.9086 6.02734H1.4541ZM5.81889 10.7288H5.07874L3.71572 8.55951V10.7747H2.93087V7.01305L3.67102 7.01318L5.03404 9.18239V7.00753H5.81889V10.7288ZM8.31696 7.806H7.07183V8.49866H8.22516V9.2835H7.07183V9.97616H8.31696V10.761H6.28695V9.2835V8.49866V7.02113H8.31696V7.806ZM12.0151 10.7492L11.2708 10.7543L10.6601 8.63612L10.0489 10.7494L9.3042 10.7545L8.584 7.11351L9.35394 6.96123L9.74936 8.96018L10.3003 7.05525L11.0214 7.05617L11.5708 8.96141L11.9678 6.96638L12.7376 7.11958L12.0151 10.7492ZM15.4166 9.80485C15.3163 10.3668 14.7804 10.7747 14.1424 10.7747C13.6259 10.7747 13.1412 10.5665 12.8123 10.2037L13.3939 9.67664C13.5716 9.87273 13.8514 9.9898 14.1424 9.9898C14.4203 9.9898 14.6156 9.82562 14.644 9.66689C14.682 9.45402 14.3639 9.31906 14.2655 9.28275C13.8024 9.11192 13.3911 8.92885 13.3738 8.92115L13.3454 8.90847L13.3194 8.89149C12.9984 8.68228 12.8331 8.31532 12.8878 7.93391C12.9461 7.52789 13.2426 7.19728 13.6617 7.071C14.4866 6.82251 15.1651 7.38215 15.1936 7.40608L14.6886 8.0069L14.691 8.00888C14.6872 8.00578 14.3018 7.6979 13.8881 7.8225C13.7076 7.87691 13.6717 7.99654 13.6647 8.04542C13.6598 8.07951 13.6573 8.16082 13.7287 8.2198C13.836 8.26674 14.1741 8.41248 14.5371 8.54635C15.3009 8.82815 15.4922 9.38124 15.4166 9.80485Z" fill="#003FE6"/>
</g>
<defs>
<clipPath id="clip0_42_3">
<rect width="17.4545" height="17.4545" fill="white" transform="translate(0.454102 0.272461)"/>
</clipPath>
</defs>
</svg>
