<svg width="18" height="18" viewBox="0 0 18 18" fill="none" xmlns="http://www.w3.org/2000/svg">
<g clip-path="url(#clip0_42_1283)">
<path d="M12.5162 7.1378C12.5162 7.01423 12.4682 6.89572 12.3827 6.80834C12.2973 6.72096 12.1815 6.67188 12.0607 6.67188H0.727975C0.60717 6.67188 0.491314 6.72096 0.405892 6.80834C0.32047 6.89572 0.272481 7.01423 0.272481 7.1378V13.847C0.271281 14.1268 0.32412 14.4041 0.427965 14.663C0.531809 14.9218 0.684613 15.1571 0.877605 15.3554C1.0706 15.5537 1.29997 15.711 1.55257 15.8184C1.80516 15.9257 2.076 15.981 2.34953 15.981H13.3634C12.8228 15.4116 12.5191 14.65 12.5162 13.8564V7.1378ZM1.43854 9.00148C1.43854 8.87791 1.48653 8.7594 1.57196 8.67202C1.65738 8.58464 1.77323 8.53556 1.89404 8.53556H6.1939C6.3147 8.53556 6.43056 8.58464 6.51598 8.67202C6.6014 8.7594 6.64939 8.87791 6.64939 9.00148V12.7288C6.64939 12.8524 6.6014 12.9709 6.51598 13.0583C6.43056 13.1457 6.3147 13.1948 6.1939 13.1948H1.89404C1.77323 13.1948 1.65738 13.1457 1.57196 13.0583C1.48653 12.9709 1.43854 12.8524 1.43854 12.7288V9.00148ZM10.7488 15.0491H1.89404C1.77323 15.0491 1.65738 15 1.57196 14.9127C1.48653 14.8253 1.43854 14.7068 1.43854 14.5832C1.43854 14.4596 1.48653 14.3411 1.57196 14.2537C1.65738 14.1664 1.77323 14.1173 1.89404 14.1173H10.7488C10.8696 14.1173 10.9855 14.1664 11.0709 14.2537C11.1563 14.3411 11.2043 14.4596 11.2043 14.5832C11.2043 14.7068 11.1563 14.8253 11.0709 14.9127C10.9855 15 10.8696 15.0491 10.7488 15.0491ZM10.7488 13.1854H8.01587C7.89507 13.1854 7.77921 13.1364 7.69379 13.049C7.60837 12.9616 7.56038 12.8431 7.56038 12.7195C7.56038 12.596 7.60837 12.4774 7.69379 12.3901C7.77921 12.3027 7.89507 12.2536 8.01587 12.2536H10.7488C10.8696 12.2536 10.9855 12.3027 11.0709 12.3901C11.1563 12.4774 11.2043 12.596 11.2043 12.7195C11.2043 12.8431 11.1563 12.9616 11.0709 13.049C10.9855 13.1364 10.8696 13.1854 10.7488 13.1854ZM10.7488 11.3218H8.01587C7.89507 11.3218 7.77921 11.2727 7.69379 11.1853C7.60837 11.0979 7.56038 10.9794 7.56038 10.8558C7.56038 10.7323 7.60837 10.6138 7.69379 10.5264C7.77921 10.439 7.89507 10.3899 8.01587 10.3899H10.7488C10.8696 10.3899 10.9855 10.439 11.0709 10.5264C11.1563 10.6138 11.2043 10.7323 11.2043 10.8558C11.2043 10.9794 11.1563 11.0979 11.0709 11.1853C10.9855 11.2727 10.8696 11.3218 10.7488 11.3218ZM10.7488 9.45808H8.01587C7.89507 9.45808 7.77921 9.40899 7.69379 9.32161C7.60837 9.23424 7.56038 9.11573 7.56038 8.99216C7.56038 8.86859 7.60837 8.75008 7.69379 8.6627C7.77921 8.57533 7.89507 8.52624 8.01587 8.52624H10.7488C10.8696 8.52624 10.9855 8.57533 11.0709 8.6627C11.1563 8.75008 11.2043 8.86859 11.2043 8.99216C11.2043 9.11573 11.1563 9.23424 11.0709 9.32161C10.9855 9.40899 10.8696 9.45808 10.7488 9.45808ZM5.7384 12.2536H2.34953V9.45808H5.7384V12.2536Z" fill="#003FE6"/>
<path d="M17.7269 2.77063L17.7176 13.735C17.7368 14.0228 17.6963 14.3114 17.5986 14.583C17.5009 14.8547 17.348 15.1035 17.1495 15.3141C16.951 15.5247 16.7111 15.6926 16.4446 15.8073C16.1781 15.9221 15.8906 15.9813 15.6001 15.9813C15.3096 15.9813 15.0222 15.9221 14.7557 15.8073C14.4892 15.6926 14.2492 15.5247 14.0507 15.3141C13.8522 15.1035 13.6994 14.8547 13.6017 14.583C13.504 14.3114 13.4635 14.0228 13.4827 13.735V6.42073C13.4827 6.29819 13.4337 6.18067 13.3464 6.09402C13.2591 6.00737 13.1408 5.95869 13.0173 5.95869H5.21777V2.77063C5.21777 2.64809 5.2668 2.53057 5.35408 2.44392C5.44135 2.35727 5.55972 2.30859 5.68314 2.30859H17.2615C17.3849 2.30859 17.5033 2.35727 17.5906 2.44392C17.6778 2.53057 17.7269 2.64809 17.7269 2.77063Z" fill="#48D413"/>
</g>
<defs>
<clipPath id="clip0_42_1283">
<rect width="17.4545" height="17.4545" fill="white" transform="translate(0.272461 0.272461)"/>
</clipPath>
</defs>
</svg>
