<svg width="24" height="24" viewBox="0 0 24 24" fill="none" xmlns="http://www.w3.org/2000/svg">
<mask id="path-1-inside-1_13_10978" fill="white">
<path d="M21.0288 14.0896C20.9998 13.9953 20.9525 13.9077 20.8896 13.8318C20.8267 13.7559 20.7494 13.6931 20.6622 13.647C20.575 13.601 20.4796 13.5725 20.3814 13.5634C20.2832 13.5542 20.1842 13.5645 20.09 13.5937C18.7478 13.9626 17.3317 13.9693 15.986 13.6131C14.6404 13.2568 13.4131 12.5504 12.4292 11.5656C11.4453 10.5809 10.7399 9.35305 10.3848 8.00707C10.0297 6.66109 10.0376 5.24505 10.4077 3.90311C10.4466 3.77335 10.4496 3.63549 10.4165 3.50415C10.3833 3.37281 10.3152 3.25289 10.2194 3.15712C10.1236 3.06136 10.0037 2.99332 9.87234 2.96023C9.74098 2.92714 9.60312 2.93023 9.47338 2.96918C7.89679 3.41058 6.46326 4.25712 5.3154 5.42455C4.16755 6.59199 3.34539 8.03964 2.93072 9.62348C2.51606 11.2073 2.52333 12.8721 2.95183 14.4523C3.38033 16.0324 4.21511 17.4728 5.37312 18.6302C6.53113 19.7875 7.97201 20.6215 9.5524 21.0491C11.1328 21.4767 12.7976 21.4831 14.3812 21.0675C15.9648 20.652 17.412 19.829 18.5788 18.6805C19.7456 17.532 20.5913 16.098 21.0318 14.5211C21.0731 14.3801 21.0721 14.23 21.0288 14.0896V14.0896Z"/>
</mask>
<path d="M20.09 13.5937L20.4876 15.04L20.5106 15.0337L20.5334 15.0266L20.09 13.5937ZM10.4077 3.90311L8.97084 3.47239L8.96607 3.48831L8.96166 3.50433L10.4077 3.90311ZM9.47338 2.96918L9.87779 4.41363L9.89126 4.40986L9.90466 4.40584L9.47338 2.96918ZM21.0318 14.5211L19.5923 14.0996L19.5896 14.1085L19.5871 14.1175L21.0318 14.5211ZM22.4624 13.6481C22.3753 13.3654 22.2334 13.1027 22.0447 12.8749L19.7345 14.7887C19.6716 14.7128 19.6243 14.6253 19.5953 14.5311L22.4624 13.6481ZM22.0447 12.8749C21.8561 12.6471 21.6243 12.4588 21.3628 12.3207L19.9616 14.9734C19.8745 14.9273 19.7973 14.8646 19.7345 14.7887L22.0447 12.8749ZM21.3628 12.3207C21.1013 12.1825 20.8151 12.0973 20.5206 12.0699L20.2422 15.0569C20.1441 15.0478 20.0488 15.0194 19.9616 14.9734L21.3628 12.3207ZM20.5206 12.0699C20.2261 12.0424 19.9291 12.0733 19.6466 12.1607L20.5334 15.0266C20.4393 15.0558 20.3404 15.0661 20.2422 15.0569L20.5206 12.0699ZM19.6925 12.1473C18.6058 12.446 17.4594 12.4514 16.3699 12.163L15.6022 15.0631C17.2041 15.4872 18.8897 15.4792 20.4876 15.04L19.6925 12.1473ZM16.3699 12.163C15.2805 11.8746 14.2869 11.3027 13.4903 10.5054L11.3681 12.6259C12.5393 13.7981 14.0003 14.6391 15.6022 15.0631L16.3699 12.163ZM13.4903 10.5054C12.6938 9.7082 12.1227 8.71413 11.8352 7.62443L8.93443 8.38971C9.35713 9.99197 10.1968 11.4536 11.3681 12.6259L13.4903 10.5054ZM11.8352 7.62443C11.5477 6.53473 11.5541 5.38831 11.8537 4.30189L8.96166 3.50433C8.52111 5.10178 8.51172 6.78744 8.93443 8.38971L11.8352 7.62443ZM11.8445 4.33382C11.9612 3.94463 11.9703 3.5311 11.8709 3.13715L8.96206 3.87115C8.92893 3.73987 8.93197 3.60208 8.97084 3.47239L11.8445 4.33382ZM11.8709 3.13715C11.7715 2.74319 11.5672 2.3835 11.2799 2.09626L9.15898 4.21799C9.06323 4.12228 8.99518 4.00242 8.96206 3.87115L11.8709 3.13715ZM11.2799 2.09626C10.9925 1.80901 10.6328 1.60493 10.2388 1.50567L9.50591 4.41478C9.37462 4.38171 9.25474 4.31371 9.15898 4.21799L11.2799 2.09626ZM10.2388 1.50567C9.84477 1.40642 9.43125 1.41569 9.0421 1.53251L9.90466 4.40584C9.77498 4.44477 9.63719 4.44786 9.50591 4.41478L10.2388 1.50567ZM9.06897 1.52472C7.24016 2.03674 5.57729 3.0187 4.24581 4.37291L6.385 6.4762C7.34922 5.49553 8.55342 4.78442 9.87779 4.41363L9.06897 1.52472ZM4.24581 4.37291C2.91433 5.72711 1.96064 7.40635 1.47963 9.24356L4.38182 10.0034C4.73015 8.67294 5.42078 7.45688 6.385 6.4762L4.24581 4.37291ZM1.47963 9.24356C0.998627 11.0808 1.00707 13.0119 1.50411 14.8448L4.39954 14.0597C4.0396 12.7323 4.03348 11.3338 4.38182 10.0034L1.47963 9.24356ZM1.50411 14.8448C2.00116 16.6778 2.96949 18.3486 4.31276 19.6911L6.43348 17.5692C5.46072 16.597 4.75949 15.387 4.39954 14.0597L1.50411 14.8448ZM4.31276 19.6911C5.65603 21.0337 7.32741 22.001 9.16063 22.4971L9.94417 19.6012C8.61661 19.242 7.40624 18.5414 6.43348 17.5692L4.31276 19.6911ZM9.16063 22.4971C10.9938 22.9931 12.925 23.0004 14.7619 22.5184L14.0005 19.6166C12.6702 19.9657 11.2717 19.9604 9.94417 19.6012L9.16063 22.4971ZM14.7619 22.5184C16.5989 22.0364 18.2776 21.0817 19.631 19.7495L17.5265 17.6115C16.5464 18.5762 15.3307 19.2676 14.0005 19.6166L14.7619 22.5184ZM19.631 19.7495C20.9845 18.4172 21.9655 16.7538 22.4765 14.9247L19.5871 14.1175C19.2171 15.4421 18.5067 16.6467 17.5265 17.6115L19.631 19.7495ZM22.4714 14.9427C22.5952 14.5196 22.5921 14.0695 22.4625 13.6483L19.5952 14.5309C19.552 14.3905 19.551 14.2405 19.5923 14.0996L22.4714 14.9427Z" fill="#111111" mask="url(#path-1-inside-1_13_10978)"/>
</svg>
