<svg width="18" height="18" viewBox="0 0 18 18" fill="none" xmlns="http://www.w3.org/2000/svg">
<g clip-path="url(#clip0_42_8018)">
<path d="M5.50293 8.46892C5.50293 10.5331 7.17625 12.2064 9.2404 12.2064C11.3046 12.2064 12.9779 10.5331 12.9779 8.46892C12.9779 6.40477 11.3046 4.73145 9.2404 4.73145C7.17726 4.73376 5.50524 6.40578 5.50293 8.46892ZM9.2404 8.7051C8.62019 8.70857 8.09465 8.24922 8.0153 7.63407C7.93595 7.01906 8.32764 6.44119 8.92849 6.28726V5.9713C8.92849 5.8282 9.04441 5.71228 9.1875 5.71228C9.3306 5.71228 9.44652 5.8282 9.44652 5.9713V6.2715C10.0342 6.37094 10.4632 6.88189 10.4594 7.47811C10.4594 7.61947 10.3448 7.73409 10.2035 7.73409C10.0621 7.73409 9.94749 7.61947 9.94749 7.47811C9.94705 7.08684 9.62965 6.77002 9.23838 6.77045C8.84712 6.77088 8.53029 7.08843 8.53087 7.4797C8.5313 7.87082 8.84885 8.18765 9.24012 8.18707C9.87449 8.19068 10.4013 8.67749 10.455 9.3097C10.5086 9.94177 10.0712 10.5104 9.44652 10.6208V10.9295C9.44652 11.0726 9.3306 11.1886 9.1875 11.1886C9.04441 11.1886 8.92849 11.0726 8.92849 10.9295V10.6049C8.38719 10.462 8.00894 9.974 8.00532 9.4142C8.00532 9.26952 8.12269 9.15215 8.26737 9.15215C8.41205 9.15215 8.52942 9.26952 8.52942 9.4142C8.53029 9.77598 8.80289 10.0794 9.1625 10.1188C9.1758 10.1167 9.18938 10.1156 9.20297 10.1155C9.22248 10.1155 9.24185 10.1178 9.26093 10.1222C9.64945 10.1126 9.95775 9.79203 9.95211 9.40351C9.94647 9.01484 9.62892 8.70336 9.2404 8.7051V8.7051Z" fill="#003FE6"/>
<path d="M15.239 13.9878C15.2371 13.9888 15.2351 13.9898 15.2329 13.9908L12.8285 15.1267C12.8544 15.2598 12.8657 15.3953 12.8621 15.5308C12.8583 15.671 12.7436 15.7828 12.6034 15.7828C12.6009 15.7828 12.5984 15.7828 12.596 15.7828L9.07705 15.6859C8.93396 15.682 8.82122 15.5629 8.82512 15.4198C8.82902 15.2767 8.94827 15.164 9.09122 15.1679L12.3258 15.2569C12.2186 14.6301 11.6841 14.1658 11.0484 14.1473L8.9078 14.0885C8.48502 14.0764 8.07049 13.9693 7.69483 13.7751L7.47701 13.6624C6.40728 13.1051 5.11829 13.1776 4.11794 13.8516L4.03223 16.9657L4.40008 16.7687C4.76561 16.5721 5.1933 16.5253 5.59281 16.6382L9.22564 17.6579C9.92578 17.8013 10.6534 17.72 11.3047 17.4255L16.3377 14.1699C16.0505 13.8759 15.6057 13.802 15.239 13.9878V13.9878Z" fill="#48D413"/>
<path d="M1.66797 17.5062L1.7956 12.873L3.62516 12.9235L3.49754 17.5567L1.66797 17.5062Z" fill="#003FE6"/>
<path d="M9.48385 3.34361V0.531474C9.48385 0.388381 9.36793 0.272461 9.22483 0.272461C9.08174 0.272461 8.96582 0.388381 8.96582 0.531474V3.34361C8.96582 3.48671 9.08174 3.60263 9.22483 3.60263C9.36793 3.60263 9.48385 3.48671 9.48385 3.34361Z" fill="#48D413"/>
<path d="M11.7036 3.34401V2.01194C11.7036 1.86885 11.5877 1.75293 11.4446 1.75293C11.3015 1.75293 11.1855 1.86885 11.1855 2.01194V3.34401C11.1855 3.4871 11.3015 3.60302 11.4446 3.60302C11.5877 3.60302 11.7036 3.4871 11.7036 3.34401Z" fill="#48D413"/>
<path d="M7.26314 3.34401V2.01194C7.26314 1.86885 7.14722 1.75293 7.00413 1.75293C6.86104 1.75293 6.74512 1.86885 6.74512 2.01194V3.34401C6.74512 3.4871 6.86104 3.60302 7.00413 3.60302C7.14722 3.60302 7.26314 3.4871 7.26314 3.34401Z" fill="#48D413"/>
</g>
<defs>
<clipPath id="clip0_42_8018">
<rect width="17.4545" height="17.4545" fill="white" transform="translate(0.272461 0.272461)"/>
</clipPath>
</defs>
</svg>
