<svg width="16" height="16" viewBox="0 0 16 16" fill="none" xmlns="http://www.w3.org/2000/svg">
<path fill-rule="evenodd" clip-rule="evenodd" d="M14.667 7.99967C14.667 4.31775 11.682 1.33301 8.00033 1.33301C4.31863 1.33301 1.33366 4.31775 1.33366 7.99967C1.33366 11.6811 4.31885 14.6663 8.00033 14.6663C11.6818 14.6663 14.667 11.6811 14.667 7.99967ZM13.667 7.99967C13.667 11.1289 11.1295 13.6663 8.00033 13.6663C4.87113 13.6663 2.33366 11.1289 2.33366 7.99967C2.33366 4.87006 4.8709 2.33301 8.00033 2.33301C11.1298 2.33301 13.667 4.87006 13.667 7.99967ZM9.36318 5.98388C9.50884 5.78845 9.4933 5.51064 9.31617 5.33275C9.12133 5.13707 8.80475 5.13639 8.60907 5.33123L6.28507 7.64523L6.2364 7.70138C6.09041 7.89742 6.10663 8.17619 6.28507 8.35386L8.60907 10.6679L8.66525 10.7161C8.8613 10.861 9.13905 10.8442 9.31617 10.6663L9.36446 10.6101C9.50928 10.4141 9.49254 10.1364 9.31465 9.95923L7.34699 7.99887L9.31465 6.03986L9.36318 5.98388Z" fill="white"/>
</svg>
