<svg width="18" height="18" viewBox="0 0 18 18" fill="none" xmlns="http://www.w3.org/2000/svg">
<g clip-path="url(#clip0_42_148)">
<path d="M17.2154 16.7037H16.67V6.61292C16.67 6.33051 16.441 6.10156 16.1586 6.10156H14.1132C13.8308 6.10156 13.6018 6.33051 13.6018 6.61292V16.7037H12.5791V10.022C12.5791 9.73956 12.3502 9.51061 12.0678 9.51061H10.0223C9.73992 9.51061 9.51097 9.73956 9.51097 10.022V16.7037H8.48826V11.8969C8.48826 11.6145 8.25931 11.3856 7.9769 11.3856H5.93147C5.64907 11.3856 5.42012 11.6145 5.42012 11.8969V16.7037H4.3974V13.1242C4.3974 12.8418 4.16845 12.6128 3.88605 12.6128H1.84062C1.55822 12.6128 1.32926 12.8418 1.32926 13.1242V16.7037H0.783818C0.501412 16.7037 0.272461 16.9326 0.272461 17.215C0.272461 17.4975 0.501412 17.7264 0.783818 17.7264H17.2154C17.4978 17.7264 17.7268 17.4975 17.7268 17.215C17.7268 16.9326 17.4978 16.7037 17.2154 16.7037Z" fill="#003FE6"/>
<path d="M0.783818 11.2601C3.9753 11.2601 7.43623 10.1139 10.5291 8.03261C12.9514 6.40257 14.9706 4.32023 16.2249 2.18797L16.7215 4.04137C16.7827 4.26984 17.0783 4.46723 17.3478 4.40293C17.6225 4.33741 17.7824 4.04945 17.7093 3.77666L16.872 0.651584C16.7989 0.378827 16.5186 0.216897 16.2457 0.290021L13.1206 1.12738C12.8478 1.20047 12.686 1.48087 12.7591 1.75366C12.8322 2.02645 13.1125 2.18838 13.3853 2.11522L15.3986 1.57578C14.2284 3.60913 12.2945 5.61188 9.95813 7.1841C7.03222 9.15302 3.77406 10.2373 0.783818 10.2373C0.501412 10.2373 0.272461 10.4663 0.272461 10.7487C0.272461 11.0311 0.501412 11.2601 0.783818 11.2601V11.2601Z" fill="#48D413"/>
</g>
<defs>
<clipPath id="clip0_42_148">
<rect width="17.4545" height="17.4545" fill="white" transform="translate(0.272461 0.272461)"/>
</clipPath>
</defs>
</svg>
