<svg width="20" height="20" viewBox="0 0 20 20" fill="none" xmlns="http://www.w3.org/2000/svg">
<path fill-rule="evenodd" clip-rule="evenodd" d="M13.5385 12.7165L17.5029 16.8396C17.8382 17.1884 17.8271 17.7446 17.4786 18.08C17.3146 18.2379 17.0985 18.3247 16.8707 18.3247C16.63 18.3247 16.4055 18.2291 16.2385 18.0557L12.2441 13.9013C11.1099 14.6984 9.78327 15.1183 8.39116 15.1183C4.68297 15.1183 1.66602 12.1013 1.66602 8.39312C1.66602 4.68493 4.68297 1.66797 8.39116 1.66797C12.0993 1.66797 15.1163 4.68493 15.1163 8.39312C15.1163 9.98025 14.5578 11.5048 13.5385 12.7165ZM13.3614 8.39264C13.3614 5.6517 11.1316 3.42188 8.39068 3.42188C5.64975 3.42188 3.41992 5.6517 3.41992 8.39264C3.41992 11.1336 5.64975 13.3634 8.39068 13.3634C11.1316 13.3634 13.3614 11.1336 13.3614 8.39264Z" fill="#003FE6"/>
</svg>
