<svg width="16" height="16" viewBox="0 0 16 16" fill="none" xmlns="http://www.w3.org/2000/svg">
<path fill-rule="evenodd" clip-rule="evenodd" d="M1.33301 8.00033C1.33301 11.6822 4.31798 14.667 7.99967 14.667C11.6814 14.667 14.6663 11.6822 14.6663 8.00033C14.6663 4.31885 11.6812 1.33366 7.99967 1.33366C4.3182 1.33366 1.33301 4.31885 1.33301 8.00033ZM2.33301 8.00033C2.33301 4.87113 4.87048 2.33366 7.99967 2.33366C11.1289 2.33366 13.6663 4.87113 13.6663 8.00033C13.6663 11.1299 11.1291 13.667 7.99967 13.667C4.87024 13.667 2.33301 11.1299 2.33301 8.00033ZM6.63682 10.0161C6.49116 10.2115 6.5067 10.4894 6.68383 10.6672C6.87867 10.8629 7.19525 10.8636 7.39093 10.6688L9.71493 8.35477L9.7636 8.29862C9.90959 8.10257 9.89337 7.82381 9.71493 7.64614L7.39093 5.33214L7.33475 5.28385C7.13869 5.13904 6.86095 5.15577 6.68383 5.33367L6.63554 5.38985C6.49072 5.58591 6.50746 5.86364 6.68535 6.04077L8.65301 8.00112L6.68535 9.96014L6.63682 10.0161Z" fill="white"/>
</svg>
