<svg width="18" height="18" viewBox="0 0 18 18" fill="none" xmlns="http://www.w3.org/2000/svg">
<g clip-path="url(#clip0_42_9059)">
<path d="M16.2807 11.4116C16.2047 11.3693 16.1252 11.3332 16.0432 11.3037V6.68304C16.1259 6.66069 16.2056 6.62874 16.2807 6.58783C16.6131 6.39793 16.8558 6.08558 16.9557 5.71918C17.0556 5.35279 17.0045 4.96219 16.8137 4.63292C16.6193 4.30674 16.3029 4.06929 15.9328 3.9719C15.5627 3.8745 15.1688 3.925 14.836 4.11246C14.7603 4.15596 14.6893 4.20701 14.6242 4.26479L10.5854 1.96079C10.5921 1.87417 10.5921 1.78718 10.5854 1.70056C10.5854 1.3218 10.4332 0.958562 10.1623 0.690741C9.89134 0.422921 9.52388 0.272461 9.14072 0.272461C8.75756 0.272461 8.39009 0.422921 8.11916 0.690741C7.84823 0.958562 7.69602 1.3218 7.69602 1.70056C7.68937 1.78718 7.68937 1.87417 7.69602 1.96079L3.70864 4.26479C3.64345 4.20701 3.57245 4.15596 3.49675 4.11246C3.16404 3.925 2.77006 3.8745 2.39999 3.9719C2.02992 4.06929 1.71349 4.30674 1.51912 4.63292C1.3283 4.96219 1.27725 5.35279 1.37714 5.71918C1.47702 6.08558 1.7197 6.39793 2.05205 6.58783C2.12716 6.62874 2.20691 6.66069 2.28963 6.68304V11.3037C2.20758 11.3332 2.12812 11.3693 2.05205 11.4116C1.7197 11.6015 1.47702 11.9139 1.37714 12.2803C1.27725 12.6467 1.3283 13.0373 1.51912 13.3665C1.61624 13.5244 1.74394 13.6617 1.8949 13.7706C2.04586 13.8796 2.2171 13.9579 2.39878 14.0013C2.51006 14.043 2.62683 14.0686 2.74551 14.0774C2.99999 14.0774 3.25007 14.0117 3.47107 13.887C3.54677 13.8435 3.61777 13.7925 3.68296 13.7347L7.7217 16.0387C7.71505 16.1253 7.71505 16.2123 7.7217 16.2989C7.7217 16.6777 7.87391 17.0409 8.14484 17.3087C8.41578 17.5765 8.78324 17.727 9.1664 17.727C9.54956 17.727 9.91702 17.5765 10.188 17.3087C10.4589 17.0409 10.6111 16.6777 10.6111 16.2989C10.6177 16.2123 10.6177 16.1253 10.6111 16.0387L14.6498 13.7347C14.715 13.7925 14.786 13.8435 14.8617 13.887C15.0827 14.0117 15.3328 14.0774 15.5873 14.0774C15.7133 14.0793 15.8389 14.0622 15.9597 14.0266C16.1414 13.9833 16.3126 13.905 16.4636 13.796C16.6145 13.6871 16.7422 13.5498 16.8394 13.3919C16.9369 13.2263 16.9998 13.043 17.0245 12.8529C17.0491 12.6629 17.035 12.4698 16.9829 12.2852C16.9308 12.1006 16.8419 11.9282 16.7213 11.7782C16.6007 11.6281 16.4509 11.5035 16.2807 11.4116ZM15.08 11.3101C14.7538 11.418 14.4789 11.6403 14.3073 11.9351C14.1357 12.2298 14.0794 12.5765 14.149 12.9096L10.0974 15.2199C9.84044 14.9955 9.50933 14.8716 9.1664 14.8716C8.82347 14.8716 8.49237 14.9955 8.23537 15.2199L4.18379 12.9096C4.2534 12.5765 4.19708 12.2298 4.02551 11.9351C3.85394 11.6403 3.57901 11.418 3.25276 11.3101V6.68304C3.57949 6.57176 3.85362 6.34594 4.02327 6.04833C4.19409 5.75225 4.25109 5.40517 4.18379 5.07087L8.23537 2.77957C8.49237 3.00401 8.82347 3.12789 9.1664 3.12789C9.50933 3.12789 9.84044 3.00401 10.0974 2.77957L14.149 5.08992C14.0798 5.42345 14.1345 5.77048 14.3031 6.06737C14.4728 6.36498 14.7469 6.5908 15.0736 6.70208L15.08 11.3101Z" fill="#003FE6"/>
<path d="M8.68432 9.27241L5.79492 7.62216V10.6497C5.79518 10.7329 5.81719 10.8146 5.85881 10.8869C5.90044 10.9592 5.96027 11.0196 6.03249 11.0623L8.68432 12.5729V9.27241Z" fill="#48D413"/>
<path d="M9.16589 8.44729L12.0553 6.80339L9.40988 5.28643C9.3351 5.24587 9.25119 5.22461 9.16589 5.22461C9.08059 5.22461 8.99668 5.24587 8.9219 5.28643L6.27649 6.80339L9.16589 8.44729Z" fill="#48D413"/>
<path d="M12.5369 7.62216L9.64746 9.27241V12.5729L12.2993 11.0623C12.3715 11.0196 12.4313 10.9592 12.473 10.8869C12.5146 10.8146 12.5366 10.7329 12.5369 10.6497V7.62216Z" fill="#48D413"/>
</g>
<defs>
<clipPath id="clip0_42_9059">
<rect width="17.4545" height="17.4545" fill="white" transform="translate(0.454102 0.272461)"/>
</clipPath>
</defs>
</svg>
